<svg xmlns="http://www.w3.org/2000/svg" xmlns:xlink="http://www.w3.org/1999/xlink" version="1.1" width="809.04pt" height="531.12pt" viewBox="0 0 809.04 531.12">
<defs>
<clipPath id="clip_0">
<path transform="matrix(.24,0,0,.24,0,0)" d="M0 0H3368.9942V2210.9864H0Z" fill-rule="evenodd"/>
</clipPath>
<clipPath id="clip_1">
<path transform="matrix(.24,0,0,.24,0,0)" d="M78.125 50H3290.625V2162.5H78.125Z" fill-rule="evenodd"/>
</clipPath>
<path id="font_2_49" d="M.07421875 0V.7158203H.21484375L.5078125 .23677063V.7158203H.64208987V0H.4970703L.2084961 .46810914V0H.07421875Z"/>
<path id="font_3_14" d="M.25048829 .11621094V.31152345H.055664064V.39453126H.25048829V.5888672H.3334961V.39453126H.5283203V.31152345H.3334961V.11621094H.25048829Z"/>
<path id="font_4_42" d="M.7470703 .6767578 .7011719 .4638672H.6826172C.680013 .5255432 .666097 .56993106 .64086917 .59703066 .6156413 .62414047 .5802409 .6376953 .53466799 .6376953 .48779298 .6376953 .44091798 .621226 .39404298 .58828738 .34716798 .5553487 .3072103 .5045624 .27416993 .43592835 .24112956 .36730448 .22460938 .29519145 .22460938 .21958924 .22460938 .15468852 .23925781 .1051178 .2685547 .070877078 .29785157 .036646528 .332194 .01953125 .37158204 .01953125 .3881836 .01953125 .40836589 .024246216 .4321289 .033676149L.48291017 .20817566C.4913737 .23742168 .49560548 .2565969 .49560548 .2657013 .49560548 .27772523 .49047853 .2878774 .4802246 .29615785 .4699707 .30444847 .4523112 .30859376 .4272461 .30859376L.4321289 .32714845H.71777346L.7133789 .30859376C.69645187 .3076172 .6831868 .30444337 .673584 .29907228 .66398116 .29370118 .6564128 .28580729 .6508789 .27539063 .6476237 .26919557 .6425781 .25323997 .6357422 .2275238L.5756836 .023986817C.5073242-.0017700195 .43538413-.0146484379 .35986329-.0146484379 .30159507-.0146484379 .25203453-.004084269 .21118164 .017044068 .17032878 .038172407 .13647461 .071650188 .10961914 .11747742 .08276367 .16331482 .06933594 .2154897 .06933594 .27400209 .06933594 .39882914 .12483724 .50171408 .23583985 .58265689 .3227539 .6453908 .42138673 .6767578 .5317383 .6767578 .55094406 .6767578 .5686849 .6757558 .58496096 .67375186 .5970052 .67208358 .61816409 .66740927 .6484375 .659729 .66796877 .6547241 .6813151 .6522217 .68847659 .6522217 .7027995 .6522217 .7163086 .6604004 .7290039 .6767578H.7470703Z"/>
<path id="font_2_54" d="M.036132814 .23242188 .17675781 .24609375C.18522136 .19872029 .20239258 .16392517 .22827149 .14170838 .2541504 .11950175 .2890625 .10839844 .3330078 .10839844 .37955729 .10839844 .41463218 .11827596 .43823243 .138031 .46183268 .15778606 .4736328 .18089295 .4736328 .20735169 .4736328 .22432964 .4686686 .23877461 .45874024 .25068666 .44881187 .26260887 .43147788 .27297975 .40673829 .28179933 .3898112 .28766886 .35123698 .29810588 .29101563 .31311036 .21354167 .33235679 .15917969 .3560079 .12792969 .38406373 .083984378 .4235331 .06201172 .47164408 .06201172 .5283966 .06201172 .56492617 .07234701 .5990906 .09301758 .6308899 .11368815 .6626994 .14347331 .68692019 .18237305 .70355227 .22127278 .7201945 .26822917 .7285156 .3232422 .7285156 .41308595 .7285156 .4807129 .70873007 .52612307 .66915896 .5715332 .62959799 .5953776 .5767924 .59765627 .5107422L.453125 .5048828C.4469401 .5416667 .43367515 .56811526 .41333009 .5842285 .39298503 .6003418 .36246745 .60839846 .32177735 .60839846 .27978517 .60839846 .24690755 .599767 .22314453 .5825043 .20784505 .5714366 .20019531 .5566203 .20019531 .5380554 .20019531 .52111819 .20735677 .5066274 .22167969 .49458314 .23990886 .47927348 .2841797 .4633026 .3544922 .44667054 .4248047 .43003846 .47680665 .41283164 .51049807 .39505006 .54418948 .37727867 .57055667 .35298158 .5895996 .3221588 .6086426 .29134623 .61816409 .25327049 .61816409 .20793152 .61816409 .16684468 .6067708 .12836202 .5839844 .09248352 .56119796 .056605024 .5289714 .029942831 .4873047 .012496948 .44563804-.004948934 .39371745-.013671875 .33154298-.013671875 .24104817-.013671875 .17154949 .007283529 .123046878 .049194337 .07454427 .09110514 .045572919 .15218099 .036132814 .23242188Z"/>
<path id="font_2_48" d="M.07080078 0V.7158203H.28710938L.4169922 .22753906 .54541018 .7158203H.76220706V0H.6279297V.56347659L.48583985 0H.3466797L.20507813 .56347659V0H.07080078Z"/>
<path id="font_2_36" d="M.7182617 0H.56103518L.49853517 .16308594H.21240235L.15332031 0H0L.2788086 .7158203H.43164063L.7182617 0M.45214845 .2841797 .35351563 .5488281 .25683595 .2841797H.45214845Z"/>
<path id="font_2_38" d="M.5307617 .26367188 .67089846 .21972656C.64941409 .1411031 .6136882 .082707729 .5637207 .044540407 .51375326 .0063832604 .45035807-.0126953129 .37353517-.0126953129 .27848307-.0126953129 .20035808 .01981608 .13916016 .08483887 .07796224 .14987183 .04736328 .23877461 .04736328 .35154725 .04736328 .47085063 .078125 .563502 .13964844 .62950137 .20117188 .69551089 .2820638 .7285156 .38232423 .7285156 .4698893 .7285156 .5410156 .7025757 .5957031 .6506958 .6282552 .62002566 .65266928 .5759786 .6689453 .5185547L.5258789 .484375C.51741537 .5214844 .49975587 .55078127 .4729004 .5722656 .44604493 .59375 .41341148 .6044922 .375 .6044922 .3219401 .6044922 .27888999 .5854492 .24584961 .5473633 .21280925 .50927737 .19628906 .44759117 .19628906 .3623047 .19628906 .2718099 .21256511 .20735677 .24511719 .16894531 .27766929 .13053386 .31998698 .111328128 .3720703 .111328128 .41048179 .111328128 .44352214 .12357076 .4711914 .14805603 .4988607 .17255147 .51871749 .21109009 .5307617 .26367188Z"/>
<path id="font_2_82" d="M.040039064 .26660157C.040039064 .31217448 .05126953 .35628257 .07373047 .39892579 .096191409 .441569 .12801107 .4741211 .16918946 .49658204 .21036785 .51904299 .25634767 .53027346 .3071289 .53027346 .38557945 .53027346 .44986979 .50480148 .5 .45385743 .5501302 .40291343 .5751953 .33854167 .5751953 .2607422 .5751953 .18229167 .54988607 .11726888 .49926759 .06567383 .44864909 .014078776 .38492839-.01171875 .30810548-.01171875 .26057945-.01171875 .21525066-.0009765625 .17211914 .020507813 .12898763 .041992189 .096191409 .07348633 .07373047 .114990238 .05126953 .15649414 .040039064 .20703125 .040039064 .26660157M.18066406 .25927735C.18066406 .20800781 .1928711 .16874187 .21728516 .14147949 .24169922 .114217128 .2718099 .10058594 .3076172 .10058594 .34342448 .10058594 .37345378 .114217128 .39770509 .14147949 .4219564 .16874187 .43408204 .20833333 .43408204 .2602539 .43408204 .3108724 .4219564 .34981285 .39770509 .3770752 .37345378 .40433757 .34342448 .41796876 .3076172 .41796876 .2718099 .41796876 .24169922 .40433757 .21728516 .3770752 .1928711 .34981285 .18066406 .31054688 .18066406 .25927735Z"/>
<path id="font_2_81" d="M.54345706 0H.40625V.26434327C.40625 .32027183 .4033203 .3564453 .39746095 .37286378 .39160157 .38928224 .38208009 .40204368 .36889649 .41114808 .3557129 .42025248 .33984376 .4248047 .32128907 .4248047 .29752604 .4248047 .27620445 .41829936 .25732423 .4052887 .23844402 .3922882 .22550456 .37505595 .21850586 .35359193 .21150716 .33213807 .20800781 .2924703 .20800781 .23458863V0H.07080078V.5185547H.19824219V.4423828C.24348958 .50097659 .30045573 .53027346 .36914063 .53027346 .39941407 .53027346 .42708335 .524821 .45214845 .513916 .47721354 .50301107 .49617515 .48909507 .5090332 .47216798 .5218913 .45524089 .5308431 .43603517 .5358887 .41455079 .54093429 .3930664 .54345706 .3623047 .54345706 .32226563V0Z"/>
<path id="font_2_89" d="M.21435547 0 .0053710939 .5185547H.14941406L.24707031 .25390626 .27539063 .16552735C.2828776 .18798828 .28759767 .20279949 .28955079 .20996094 .29410807 .22460938 .29899089 .23925781 .30419923 .25390626L.40283204 .5185547H.5439453L.33789063 0H.21435547Z"/>
<path id="font_4_36" d="M.40527345 .21289063H.20019531L.15917969 .16230774 .11230469 .10620117C.1031901 .09412638 .09651693 .08319092 .092285159 .073394779 .089029949 .06588745 .087402347 .058380128 .087402347 .050872804 .087402347 .04303996 .091552738 .035776777 .099853519 .029083252 .1081543 .02238973 .121907558 .018554688 .14111328 .017578125V0H-.056640626L-.051757814 .017578125C-.034179689 .020517985-.018554688 .02671814-.0048828127 .03617859 .0133463549 .04921977 .03955078 .07613119 .07373047 .11691284L.54296877 .6767578H.5649414L.54296877 .13522339C.5419922 .10692342 .5415039 .0898234 .5415039 .08392334 .5415039 .061645509 .5459798 .045425416 .55493167 .03526306 .5638835 .02511088 .57877609 .019215903 .5996094 .017578125L.59472659 0H.30810548L.31347657 .017578125C.34179688 .020192465 .3580729 .022481284 .3623047 .02444458 .37141929 .029022217 .37972007 .038584394 .38720704 .053131105 .394694 .06767782 .3992513 .092936199 .4008789 .12890625L.40527345 .21289063M.40527345 .2529297 .41796876 .46943666 .23388672 .2529297H.40527345Z"/>
<path id="font_4_59" d="M.30078126 .30630494 .1977539 .5463867C.17952474 .58891806 .16479492 .6153361 .15356446 .62564089 .14233399 .6359456 .12467448 .64224246 .10058594 .64453127V.6621094H.3930664L.3876953 .64453127C.3671875 .6428935 .35335288 .63880416 .3461914 .6322632 .33902995 .6257222 .33544923 .61705526 .33544923 .6062622 .33544923 .59350588 .34114585 .5735524 .35253907 .546402L.4111328 .40786744 .49267579 .48242188C.5382487 .5238851 .5673828 .5549011 .5800781 .57547 .5875651 .58755496 .5913086 .5984955 .5913086 .6082916 .5913086 .617101 .587321 .6250966 .5793457 .63227847 .5713704 .6394704 .55859377 .6435547 .5410156 .64453127L.546875 .6621094H.7631836L.75878909 .64453127C.742513 .64157107 .72753909 .63565066 .7138672 .62677 .6920573 .6126302 .65559896 .5820872 .6044922 .535141L.42626954 .37193299 .5263672 .13832093C.5494792 .08519999 .5668132 .052937826 .57836917 .041534425 .5899251 .030131022 .6070964 .02214559 .6298828 .017578125L.625 0H.33154298L.33740235 .017578125C.35791017 .017903647 .37288413 .022069296 .38232423 .030075074 .3917643 .038080854 .39648438 .04796346 .39648438 .0597229 .39648438 .07573446 .38736979 .104654949 .36914063 .14648438L.3154297 .27113343 .19335938 .15722656C.15462239 .1212972 .13208008 .0978597 .12573242 .08691406 .119384769 .07596842 .11621094 .065597537 .11621094 .05580139 .11621094 .045995077 .12076823 .03733317 .12988281 .029815674 .13899739 .02230835 .15397136 .018229166 .17480469 .017578125L.16894531 0H-.060546876L-.055664064 .017578125C-.038411458 .020935059-.02360026 .026468913-.011230469 .034179689 .019042969 .052408857 .056315107 .08203125 .10058594 .123046878L.30078126 .30630494Z"/>
<path id="font_4_37" d="M.15478516 .6621094H.4165039C.47477214 .6621094 .5164388 .65902206 .5415039 .6528473 .57438156 .6450348 .5998535 .62982687 .6179199 .6072235 .6359863 .5846202 .64501956 .5590108 .64501956 .5303955 .64501956 .50697836 .6378581 .4830729 .62353518 .4586792 .6092122 .43429566 .58780929 .4142151 .5593262 .3984375 .5308431 .38267008 .48714195 .3681183 .42822267 .3547821 .48942057 .33751933 .53190109 .31536357 .55566409 .28831483 .57942709 .26127626 .5913086 .22983806 .5913086 .19400025 .5913086 .16045125 .57958987 .12730408 .55615237 .094558719 .53271487 .061813356 .5016276 .03786723 .46289063 .022720337 .42415367 .007573446 .3531901 0 .25 0H-.025390625L-.019042969 .017578125C.0076497399 .017578125 .026774088 .020019532 .038330079 .024902344 .049886068 .029795329 .05916341 .03737386 .06616211 .04763794 .073160808 .05791219 .08138021 .0793457 .09082031 .11193848L.20898438 .5188751C.22102864 .56059268 .22705078 .58851626 .22705078 .6026459 .22705078 .6141408 .22224935 .6236674 .21264649 .6312256 .20304363 .63878378 .1821289 .643219 .14990235 .64453127L.15478516 .6621094M.3046875 .3701172C.34895835 .37076823 .38387046 .37771607 .40942384 .3909607 .4349772 .40420533 .45548503 .42592875 .47094728 .45613099 .48640953 .48634339 .49414063 .514857 .49414063 .54167178 .49414063 .5668691 .48616538 .587382 .47021485 .60321047 .4542643 .6190389 .43294273 .6266276 .40625 .62597659L.37939454 .625 .3046875 .3701172M.29296876 .3330078 .2084961 .038085939C.22477214 .037434896 .23697917 .037109376 .24511719 .037109376 .31770835 .037109376 .36816407 .057403566 .39648438 .09799194 .4248047 .1385905 .43896485 .18204244 .43896485 .22834778 .43896485 .2505137 .43351237 .27015687 .42260743 .28727723 .41170249 .30439759 .3976237 .31629945 .3803711 .3229828 .3631185 .32966615 .33398438 .3330078 .29296876 .3330078Z"/>
<path id="font_4_38" d="M.7207031 .6767578 .671875 .4658203H.65283206C.6505534 .5236003 .6364746 .5666911 .6105957 .5950928 .5847168 .62349447 .55094406 .6376953 .50927737 .6376953 .46435548 .6376953 .41959635 .6185048 .375 .5801239 .33040367 .541743 .29264323 .48303733 .26171876 .40400697 .23665364 .3399302 .2241211 .27666728 .2241211 .21421814 .2241211 .15826924 .23787435 .11557516 .26538087 .086135867 .29288737 .056706747 .3305664 .041992189 .37841798 .041992189 .41715495 .041992189 .45247398 .050491334 .484375 .067489627 .51627609 .084498088 .5485026 .11213175 .5810547 .15039063H.6044922C.5641276 .08948771 .52335616 .04675293 .48217774 .02218628 .44099937-.0023701986 .390625-.0146484379 .3310547-.0146484379 .2513021-.0146484379 .1870931 .009485881 .13842774 .057754518 .08976237 .106033328 .06542969 .16901653 .06542969 .2467041 .06542969 .31951905 .08479818 .3889974 .123535159 .45513917 .16227214 .5212911 .21801758 .574763 .29077149 .6155548 .3635254 .6563568 .4358724 .6767578 .5078125 .6767578 .53515627 .6767578 .56917318 .67104086 .6098633 .65960696 .6306966 .65388998 .6451823 .6510315 .6533203 .6510315 .6695964 .6510315 .68603518 .65960696 .7026367 .6767578H.7207031Z"/>
<path id="font_4_52" d="M.29882813-.0146484379 .21289063-.092819217C.24511719-.08627828 .27148438-.08300781 .2919922-.08300781 .3203125-.08300781 .3601888-.08984375 .4116211-.103515628 .46305339-.1171875 .50358077-.12402344 .5332031-.12402344 .5657552-.12402344 .5958659-.11816406 .62353518-.10644531 .6407878-.09928385 .6585286-.08707682 .6767578-.06982422L.69140627-.083496097C.6585286-.123687747 .6197917-.15448506 .5751953-.17588806 .53059896-.19730123 .47444663-.20800781 .40673829-.20800781 .36865235-.20800781 .32421876-.20247396 .2734375-.19140625 .22265625-.18033855 .18229167-.17480469 .15234375-.17480469 .12858074-.17480469 .1031901-.17851766 .076171878-.1859436L.06689453-.17373657 .24707031-.0146484379C.20475261-.007497152 .17236328 .0038808187 .14990235 .019485474 .11930338 .04028829 .09554037 .06881205 .07861328 .10505676 .0616862 .14130147 .053222658 .17860413 .053222658 .21696472 .053222658 .28912864 .07397461 .3618571 .115478519 .43515016 .15698242 .50845339 .21264649 .5670471 .2824707 .6109314 .35229493 .6548157 .42154948 .6767578 .49023438 .6767578 .52994796 .6767578 .5678711 .66684469 .6040039 .64701846 .6401367 .6271922 .66813156 .5991567 .6879883 .562912 .70784506 .5266673 .71777346 .4890391 .71777346 .45002748 .71777346 .3918406 .7036133 .33210755 .67529299 .27082826 .64697268 .20955913 .6086426 .15616863 .56030276 .11065674 .5119629 .06515503 .46321617 .032165529 .4140625 .011688232 .38085938-.0022888184 .3424479-.011067708 .29882813-.0146484379M.4741211 .6376953C.44840495 .6376953 .42651368 .6330617 .40844728 .62379458 .39038087 .61453756 .37158204 .59901937 .35205079 .57724 .33251954 .55547079 .31266276 .524353 .29248048 .48388673 .2722982 .4434204 .25333659 .38841249 .2355957 .31886292 .21785482 .24931336 .20898438 .19129944 .20898438 .14482117 .20898438 .10517883 .21761067 .0752004 .23486328 .054885866 .25211589 .03457133 .2742513 .024414063 .30126954 .024414063 .3370768 .024414063 .36751304 .036275228 .39257813 .05999756 .4423828 .10712687 .48299156 .17626953 .5144043 .26742555 .5458171 .3585917 .56152346 .4397634 .56152346 .51094058 .56152346 .5554657 .5531413 .5877228 .53637698 .6077118 .5196126 .6277008 .4988607 .6376953 .4741211 .6376953Z"/>
<path id="font_4_40" d="M.3779297 .625 .30419923 .36914063H.32666017C.38590495 .36914063 .42911784 .37695313 .45629884 .39257813 .48347984 .40820313 .50651046 .4358724 .5253906 .47558595H.54345706L.46923829 .21777344H.45214845C.45507813 .23502605 .45654298 .24902344 .45654298 .25976563 .45654298 .27766929 .45125328 .29231773 .44067384 .30371095 .4300944 .31510417 .41634117 .3232422 .39941407 .328125 .38834635 .33138023 .36539714 .3330078 .3305664 .3330078H.29248048L.2290039 .11047363C.22347005 .090911868 .22070313 .07640076 .22070313 .06694031 .22070313 .059443159 .22428386 .053410848 .23144531 .048843385 .24186199 .042322797 .261556 .0390625 .29052735 .0390625 .3461914 .0390625 .39860026 .05086263 .4477539 .07446289 .49690757 .09806315 .5410156 .13378906 .5800781 .18164063H.60009768L.53125 0H-.03515625L-.029296875 .017578125C.00390625 .017578125 .028157553 .023874918 .04345703 .036468507 .05875651 .04906209 .07259115 .07678223 .08496094 .119628909L.20947266 .54629519C.2163086 .57007858 .21972656 .5888112 .21972656 .6024933 .21972656 .6148834 .21533203 .6244151 .20654297 .63108828 .1977539 .6377716 .17773438 .6422526 .14648438 .64453127L.15185547 .6621094H.6796875L.63720706 .49609376H.6196289C.61832687 .5286458 .61328127 .55159506 .6044922 .5649414 .5908203 .5857747 .57267257 .60099288 .5500488 .6105957 .5274251 .62019857 .49072267 .625 .4399414 .625H.3779297Z"/>
<path id="font_4_56" d="M.58447268 .6621094H.80859377L.8041992 .64453127C.7784831 .64256796 .7586263 .63636276 .7446289 .6259155 .72216799 .6092529 .7054036 .58181259 .69433596 .54359439L.6064453 .24008179C.57910159 .14540608 .5419922 .07927958 .4951172 .04170227 .4482422 .004135132 .38867188-.0146484379 .31640626-.0146484379 .27539063-.0146484379 .23925781-.008799235 .20800781 .00289917 .17675781 .014597575 .1538086 .027755738 .13916016 .042373659 .12451172 .05700175 .11328125 .07511902 .10546875 .096725467 .09765625 .11833191 .09375 .13644409 .09375 .15106201 .09375 .1741333 .100260417 .20825196 .11328125 .25341798L.19726563 .54382327C.20475261 .56989547 .2084961 .58928939 .2084961 .602005 .2084961 .61438497 .20385742 .623998 .19458008 .6308441 .18530274 .63769027 .16373699 .6422526 .12988281 .64453127L.1352539 .6621094H.46533204L.45947267 .64453127C.42757163 .64453127 .40323893 .63766989 .3864746 .62394717 .3697103 .61023458 .3556315 .5834503 .34423829 .54359439L.25976563 .25404359C.24576824 .20561219 .23876953 .16677349 .23876953 .13752747 .23876953 .11088562 .24951172 .08765157 .2709961 .06782532 .29248048 .047999067 .32242839 .038085939 .36083985 .038085939 .3959961 .038085939 .42586265 .044484457 .45043946 .057281496 .47501628 .07007853 .49544273 .08797709 .51171877 .11097717 .5332031 .14175923 .5524089 .18582154 .56933596 .24316406L.6557617 .54382327C.66064456 .5610962 .66308596 .5754344 .66308596 .58683779 .66308596 .6070506 .6559245 .62253317 .64160159 .6332855 .63151046 .64078268 .61067709 .64453127 .57910159 .64453127L.58447268 .6621094Z"/>
<path id="font_2_39" d="M.072265628 .7158203H.33642579C.3959961 .7158203 .44140626 .711263 .47265626 .70214846 .51464846 .6897786 .55061849 .66780599 .5805664 .63623049 .61051437 .60465499 .6333008 .5659993 .6489258 .5202637 .6645508 .47452799 .6723633 .4181315 .6723633 .35107423 .6723633 .29215495 .66503909 .2413737 .6503906 .19873047 .632487 .14664714 .6069336 .10449219 .57373049 .072265628 .54866537 .047851564 .5148112 .028808594 .47216798 .015136719 .44026695 .0050455729 .3976237 0 .34423829 0H.072265628V.7158203M.21679688 .59472659V.12109375H.32470704C.36507163 .12109375 .39420573 .1233724 .41210938 .12792969 .43554688 .13377889 .45499674 .14369202 .47045899 .15766907 .48592124 .1716563 .49853517 .19466655 .5083008 .22669983 .5180664 .25873313 .5229492 .30238853 .5229492 .35766603 .5229492 .4129435 .5180664 .4553782 .5083008 .4849701 .49853517 .51456198 .48486329 .5376485 .46728517 .55422976 .44970704 .5708211 .42740885 .58204147 .40039063 .5878906 .38020835 .59244796 .34065757 .59472659 .28173829 .59472659H.21679688Z"/>
<path id="font_2_53" d="M.07324219 0V.7158203H.3774414C.4539388 .7158203 .5095215 .7093913 .54418948 .6965332 .5788574 .6836751 .6066081 .6608073 .6274414 .6279297 .6482747 .59505209 .6586914 .5574544 .6586914 .5151367 .6586914 .46142579 .6429036 .41707359 .6113281 .38208009 .5797526 .34708659 .53255209 .32503257 .46972657 .31591798 .50097659 .2976888 .5267741 .27766929 .54711917 .25585938 .5674642 .23404949 .59488937 .1953125 .62939456 .13964844L.7167969 0H.5439453L.43945313 .1558075C.40234376 .21145122 .37695313 .24651082 .36328126 .26098634 .34960938 .27547203 .3351237 .2854004 .31982423 .29077149 .30452476 .29614259 .28027345 .29882813 .24707031 .29882813H.21777344V0H.07324219M.21777344 .41308595H.32470704C.39404298 .41308595 .43733726 .41601563 .45458985 .421875 .47184245 .42773438 .48535157 .43782554 .4951172 .45214845 .5048828 .46647135 .5097656 .484375 .5097656 .5058594 .5097656 .52994796 .5033366 .54939779 .49047853 .564209 .47762046 .5790202 .45947267 .5883789 .43603517 .59228518 .4243164 .5939128 .38916017 .59472659 .3305664 .59472659H.21777344V.41308595Z"/>
<path id="font_2_55" d="M.23388672 0V.59472659H.021484375V.7158203H.59033206V.59472659H.37841798V0H.23388672Z"/>
<path id="font_3_47" d="M.07324219 0V.7158203H.16796875V.084472659H.5205078V0H.07324219Z"/>
<path id="font_3_76" d="M.06640625 .6142578V.7158203H.15429688V.6142578H.06640625M.06640625 0V.5185547H.15429688V0H.06640625Z"/>
<path id="font_3_81" d="M.06591797 0V.5185547H.14501953V.4453125C.18310547 .5019531 .23811849 .53027346 .3100586 .53027346 .3413086 .53027346 .3700358 .5246582 .39624024 .51342776 .42244468 .50219729 .44205729 .48746745 .45507813 .46923829 .46809898 .45100913 .47721354 .42936198 .48242188 .40429688 .4856771 .38802085 .4873047 .35953776 .4873047 .31884767V0H.39941407V.31576539C.39941407 .35161338 .3959961 .37841798 .38916017 .3961792 .38232423 .41394044 .37019859 .42811585 .3527832 .43870545 .33536784 .44929505 .3149414 .45458985 .2915039 .45458985 .254069 .45458985 .22176107 .44269309 .19458008 .41889955 .1673991 .39511619 .1538086 .34998576 .1538086 .2835083V0H.06591797Z"/>
<path id="font_3_72" d="M.42089845 .16699219 .51171877 .15576172C.49739585 .10270182 .47086589 .061523439 .4321289 .032226564 .39339195 .0029296876 .34391276-.01171875 .2836914-.01171875 .20784505-.01171875 .14770508 .01163737 .103271488 .05834961 .05883789 .10506185 .036621095 .17057292 .036621095 .2548828 .036621095 .3421224 .05908203 .40983073 .104003909 .4580078 .14892578 .5061849 .20719402 .53027346 .2788086 .53027346 .34814454 .53027346 .40478517 .5067088 .44873048 .45957948 .49267579 .41246034 .51464846 .34616599 .51464846 .2606964 .51464846 .25549827 .51448568 .247701 .51416018 .23730469H.1274414C.13069661 .1805013 .14680989 .13700359 .17578125 .10681152 .20475261 .07661947 .24088542 .061523439 .2841797 .061523439 .31640626 .061523439 .34391276 .0699056 .36669923 .08666992 .3894857 .10344442 .4075521 .1302185 .42089845 .16699219M.13232422 .31054688H.421875C.41796876 .3534546 .40690104 .38563539 .38867188 .40708924 .3606771 .4403839 .3243815 .45703126 .27978517 .45703126 .23942058 .45703126 .20548503 .44374085 .17797852 .41716004 .150472 .3905894 .1352539 .35505168 .13232422 .31054688Z"/>
<path id="font_3_68" d="M.40429688 .06402588C.37174479 .03633626 .34041343 .016789755 .31030274 .0053863527 .28019206-.0060170495 .24788411-.01171875 .2133789-.01171875 .15641277-.01171875 .11263021 .0022074383 .08203125 .030059815 .051432294 .05791219 .036132814 .09350077 .036132814 .13682556 .036132814 .16222637 .04191081 .18542989 .053466798 .20643616 .06502279 .22745259 .08015951 .24431356 .09887695 .25701905 .1175944 .26972453 .13867188 .2793325 .16210938 .2858429 .17936199 .29041038 .20540364 .29480998 .24023438 .29904176 .3111979 .30744425 .363444 .3174642 .39697267 .32910157 .3972982 .34109498 .39746095 .3487142 .39746095 .35195924 .39746095 .38763429 .38916017 .4127655 .3725586 .4273529 .35009767 .44713847 .31673179 .45703126 .27246095 .45703126 .2311198 .45703126 .20060222 .44978843 .1809082 .43530274 .16121419 .42081706 .14664714 .39518229 .13720703 .35839845L.05126953 .3701172C.05908203 .40701295 .0719401 .43680827 .08984375 .45950318 .1077474 .4821981 .1336263 .4996643 .16748047 .51190188 .20133464 .5241496 .24055989 .53027346 .28515626 .53027346 .3294271 .53027346 .36539714 .5250651 .3930664 .51464846 .4207357 .50423178 .44108073 .49112956 .45410157 .4753418 .4671224 .45955406 .47623698 .43961589 .4814453 .41552735 .484375 .40055339 .48583985 .37353517 .48583985 .33447267V.21728516C.48583985 .13557942 .48771159 .08390299 .49145509 .06225586 .49519859 .040608724 .5026042 .019856772 .5136719 0H.421875C.4127604 .018249512 .40690104 .039591474 .40429688 .06402588M.39697267 .2607422C.36507163 .24760945 .31722007 .2364502 .25341798 .2272644 .21728516 .22203572 .19173177 .21615093 .17675781 .20960999 .16178386 .20307923 .15022786 .19351705 .14208985 .18092346 .13395183 .16834004 .12988281 .15436809 .12988281 .13900757 .12988281 .115478519 .13875325 .09586588 .15649414 .08016968 .17423503 .06448364 .20019531 .056640626 .234375 .056640626 .26822917 .056640626 .29833985 .064081829 .32470704 .07896423 .35107423 .09384664 .37044273 .11420695 .3828125 .14004517 .3922526 .16000366 .39697267 .18944295 .39697267 .22836304V.2607422Z"/>
<path id="font_3_85" d="M.064941409 0V.5185547H.14404297V.4404297C.16422527 .4770101 .18286133 .50112918 .19995117 .51278689 .21704102 .5244446 .23583985 .53027346 .25634767 .53027346 .28597007 .53027346 .31608073 .520874 .3466797 .5020752L.31640626 .42089845C.29492188 .43359376 .2734375 .4399414 .25195313 .4399414 .23274739 .4399414 .2154948 .43415324 .20019531 .4225769 .18489583 .41101075 .17399089 .3949636 .16748047 .37443543 .15771485 .3431549 .15283203 .3089396 .15283203 .27178956V0H.064941409Z"/>
<path id="font_3_3" d="M0 0Z"/>
<path id="font_3_83" d="M.06591797-.19921875V.5185547H.1459961V.45166017C.1648763 .4778646 .18619792 .4975179 .20996094 .5106201 .23372396 .52372238 .26253257 .53027346 .29638673 .53027346 .34065757 .53027346 .37972007 .5188802 .41357423 .49609376 .44742839 .47330729 .47298179 .4411621 .49023438 .3996582 .507487 .3581543 .5161133 .31266276 .5161133 .2631836 .5161133 .2101237 .5065918 .16235352 .48754884 .11987305 .46850587 .07739258 .44083659 .044840497 .40454103 .022216797 .36824546-.00040690104 .33007813-.01171875 .29003907-.01171875 .2607422-.01171875 .23445638-.005452474 .21118164 .007080078 .1879069 .019622803 .16878255 .035461427 .1538086 .054595949V-.19921875H.06591797M.14550781 .25708009C.14550781 .19042969 .15901692 .14117432 .18603516 .109313968 .21305339 .07745361 .24576824 .061523439 .2841797 .061523439 .3232422 .061523439 .35668946 .07802328 .38452149 .11102295 .41235353 .14402263 .42626954 .19514974 .42626954 .2644043 .42626954 .33040367 .41267906 .37982179 .38549806 .4126587 .35831706 .4454956 .32584635 .46191407 .28808595 .46191407 .25065104 .46191407 .2175293 .44443766 .1887207 .40948487 .15991211 .37453208 .14550781 .32373048 .14550781 .25708009Z"/>
<path id="font_3_82" d="M.033203126 .25927735C.033203126 .355306 .059895833 .42643229 .11328125 .47265626 .15787761 .5110677 .21223958 .53027346 .2763672 .53027346 .34765626 .53027346 .40592448 .5069173 .45117188 .46020509 .49641929 .41349284 .51904299 .34895835 .51904299 .26660157 .51904299 .1998698 .5090332 .14737956 .48901368 .10913086 .46899415 .070882167 .43986003 .041178388 .40161134 .020019532 .36336265-.0011393229 .3216146-.01171875 .2763672-.01171875 .20377605-.01171875 .1451009 .011555989 .1003418 .05810547 .055582685 .104654949 .033203126 .17171224 .033203126 .25927735M.123535159 .25952149C.123535159 .19335938 .13802083 .14381917 .16699219 .11090088 .19596355 .07798258 .23242188 .061523439 .2763672 .061523439 .31998698 .061523439 .35628257 .078063968 .3852539 .11114502 .41422526 .14422608 .42871095 .19465637 .42871095 .2624359 .42871095 .32632957 .4141439 .3747355 .38500978 .4076538 .35587565 .4405721 .31966148 .45703126 .2763672 .45703126 .23242188 .45703126 .19596355 .44065348 .16699219 .40789796 .13802083 .37514244 .123535159 .3256836 .123535159 .25952149Z"/>
<path id="font_3_77" d="M.06542969 .61328127V.7158203H.15332031V.61328127H.06542969M-.045898439-.20166016-.029296875-.12695313C-.01171875-.13151042 .0021158856-.13378906 .012207031-.13378906 .030110678-.13378906 .04345703-.12784322 .052246095-.11595154 .061035158-.10405985 .06542969-.07433573 .06542969-.026779175V.5185547H.15332031V-.028686524C.15332031-.0925293 .14501953-.13699341 .12841797-.16207886 .10725912-.19465129 .07210287-.2109375 .022949219-.2109375-.00081380209-.2109375-.023763022-.20784505-.045898439-.20166016Z"/>
<path id="font_3_70" d="M.40429688 .19042969 .49072267 .17919922C.48128257 .11947632 .45711265 .07272339 .4182129 .03894043 .37931315 .005167643 .33154298-.01171875 .27490235-.01171875 .2039388-.01171875 .14689128 .011474609 .103759769 .057861329 .060628255 .10424805 .0390625 .17073567 .0390625 .25732423 .0390625 .3133138 .048339845 .3623047 .06689453 .40429688 .08544922 .44628907 .11368815 .4777832 .15161133 .4987793 .1895345 .5197754 .23079427 .53027346 .27539063 .53027346 .33170573 .53027346 .37776695 .51598617 .41357423 .4874115 .4493815 .45884706 .47233073 .4182841 .48242188 .36572267L.39697267 .35253907C.38883464 .38720704 .37443034 .4132894 .35375978 .43078614 .3330892 .44828288 .30810548 .45703126 .2788086 .45703126 .23453777 .45703126 .1985677 .4412384 .17089844 .4096527 .14322917 .37807719 .12939453 .32811485 .12939453 .25976563 .12939453 .19043987 .14274089 .1400655 .1694336 .10864258 .1961263 .07722982 .23095703 .061523439 .27392579 .061523439 .308431 .061523439 .3372396 .07206217 .36035157 .09313965 .38346354 .114217128 .39811198 .14664714 .40429688 .19042969Z"/>
<path id="font_3_87" d="M.2578125 .07763672 .2705078 0C.24576824-.0045572917 .22363281-.0068359377 .20410156-.0068359377 .17220052-.0068359377 .14746094-.0017903646 .12988281 .008300781 .11230469 .018391928 .0999349 .031656904 .09277344 .048095704 .08561198 .06453451 .08203125 .099121097 .08203125 .15185547V.4501953H.017578125V.5185547H.08203125V.6473236L.1694336 .7001953V.5185547H.2578125V.4501953H.1694336V.14697266C.1694336 .121907558 .17097982 .10579427 .17407227 .09863281 .17716472 .09147135 .18221028 .08577474 .18920899 .08154297 .19620769 .077311199 .20621746 .07519531 .21923828 .07519531 .2290039 .07519531 .24186199 .07600912 .2578125 .07763672Z"/>
<path id="font_3_54" d="M.044921876 .23046875 .13427735 .23828125C.13850911 .20247396 .14835613 .1730957 .16381836 .15014649 .1792806 .12719727 .20328777 .10864258 .23583985 .09448242 .26839195 .080322269 .30501304 .07324219 .34570313 .07324219 .38183595 .07324219 .41373698 .07861328 .44140626 .08935547 .46907554 .100097659 .4896647 .11482748 .5031738 .13354492 .5166829 .15226238 .5234375 .1726888 .5234375 .19482422 .5234375 .21728516 .51692709 .23689778 .50390627 .2536621 .4908854 .27042643 .46940104 .28450523 .43945313 .29589845 .4202474 .3033854 .37776695 .3150228 .31201173 .33081056 .24625652 .3465983 .20019531 .36149089 .17382813 .37548829 .13964844 .39339195 .11417643 .41560874 .09741211 .44213868 .08064779 .4686686 .072265628 .4983724 .072265628 .53125 .072265628 .5673828 .08251953 .6011556 .103027347 .63256838 .123535159 .66398116 .15348308 .6878255 .1928711 .70410159 .23225911 .7203776 .27604167 .7285156 .32421876 .7285156 .37727867 .7285156 .42407228 .7199707 .4645996 .70288088 .50512698 .685791 .5362956 .66064456 .55810549 .6274414 .57991537 .5942383 .5916341 .5566406 .5932617 .51464846L.5024414 .5078125C.4975586 .55322268 .48103843 .5875244 .45288087 .6107178 .4247233 .63391116 .38313804 .6455078 .328125 .6455078 .27083335 .6455078 .22908528 .6349996 .20288086 .61398318 .17667644 .59297689 .16357422 .5676524 .16357422 .53800967 .16357422 .51227316 .17285156 .49109904 .19140625 .4744873 .20963542 .4578654 .25724284 .44084168 .33422853 .42341615 .4112142 .4059906 .46402995 .39076234 .49267579 .37773133 .53434249 .3585154 .5651042 .33416239 .58496096 .30467225 .6048177 .27519227 .6147461 .24123128 .6147461 .2027893 .6147461 .16468303 .6038411 .12876892 .58203127 .095047 .5602214 .061335248 .52888998 .035110475 .4880371 .01637268 .44718424-.0023549398 .40120445-.01171875 .35009767-.01171875 .285319-.01171875 .2310384-.0022786458 .18725586 .016601563 .14347331 .03548177 .10913086 .06388346 .084228519 .10180664 .059326173 .13972982 .046223958 .18261719 .044921876 .23046875Z"/>
<path id="font_3_84" d="M.39648438-.19921875V.05607605C.3828125 .03661601 .36368815 .020451865 .33911134 .007583618 .31453453-.0052846276 .28841148-.01171875 .2607422-.01171875 .19921875-.01171875 .14624024 .012858073 .10180664 .06201172 .057373048 .11116537 .03515625 .17854817 .03515625 .26416017 .03515625 .3162435 .044189454 .36295573 .06225586 .40429688 .080322269 .44563804 .106526698 .4769694 .14086914 .49829103 .1752116 .5196126 .21289063 .53027346 .25390626 .53027346 .31803385 .53027346 .3684896 .50358077 .40527345 .4501953V.5185547H.484375V-.19921875H.39648438M.12548828 .26171876C.12548828 .19498699 .13948567 .14493816 .16748047 .111572269 .19547527 .07820638 .2290039 .061523439 .2680664 .061523439 .3055013 .061523439 .33772788 .07739258 .3647461 .10913086 .3917643 .14086914 .40527345 .18912761 .40527345 .25390626 .40527345 .32291667 .3910319 .37483726 .36254884 .40966798 .33406578 .4444987 .3006185 .46191407 .26220704 .46191407 .2241211 .46191407 .19181316 .4457194 .1652832 .41333009 .13875325 .38094078 .12548828 .33040367 .12548828 .26171876Z"/>
<path id="font_3_88" d="M.40576173 0V.076171878C.36539714 .017578125 .31054688-.01171875 .24121094-.01171875 .21061199-.01171875 .18204753-.005859375 .15551758 .005859375 .12898763 .017578125 .10929362 .03230794 .09643555 .050048829 .08357748 .06778971 .07454427 .08951823 .06933594 .115234378 .06575521 .13248699 .063964847 .15983074 .063964847 .19726563V.5185547H.15185547V.23095703C.15185547 .1850586 .15364583 .15413411 .15722656 .1381836 .16276042 .11507162 .17447917 .09692383 .19238281 .083740238 .21028646 .07055664 .23242188 .063964847 .25878907 .063964847 .28515626 .063964847 .30989585 .0707194 .3330078 .084228519 .35611979 .09773763 .3724772 .116129558 .38208009 .1394043 .39168296 .16267903 .39648438 .19645183 .39648438 .24072266V.5185547H.484375V0H.40576173Z"/>
<path id="font_3_86" d="M.030761719 .15527344 .11767578 .16894531C.122558597 .13426717 .1361491 .107691448 .15844727 .08921814 .18074544 .070755008 .21191406 .061523439 .25195313 .061523439 .29231773 .061523439 .32226563 .06967672 .34179688 .08598328 .36132813 .10230001 .37109376 .12143453 .37109376 .14338684 .37109376 .16309102 .36246745 .17859395 .34521485 .18989563 .33317057 .1976471 .30322267 .20749919 .2553711 .2194519 .19091797 .23573812 .14624024 .24982707 .12133789 .26171876 .09643555 .27361045 .077555339 .29006449 .064697269 .31108094 .05183919 .33209739 .045410158 .35531108 .045410158 .38072206 .045410158 .40385438 .05069987 .4252777 .061279298 .44499208 .07185873 .46470643 .08626302 .4810791 .10449219 .4941101 .11816406 .5042114 .13680013 .5127614 .16040039 .51976016 .18400066 .526769 .20930989 .53027346 .23632813 .53027346 .27701823 .53027346 .31274415 .52437338 .34350587 .51257327 .37426759 .50078329 .39697267 .48480735 .4116211 .4646454 .42626954 .44449363 .4363607 .4175415 .44189454 .38378907L.35595704 .3720703C.35205079 .39876304 .34073893 .41959635 .32202149 .4345703 .30330406 .44954429 .27685548 .45703126 .24267578 .45703126 .2023112 .45703126 .17350261 .45038859 .15625 .43710328 .13899739 .42382813 .1303711 .40827943 .1303711 .39045716 .1303711 .37912498 .13395183 .3689219 .14111328 .35984803 .14827474 .35045878 .1595052 .34268699 .17480469 .3365326 .18359375 .33328758 .20947266 .32583619 .2524414 .31417848 .31461589 .29758708 .35799156 .28400675 .38256837 .2734375 .40714518 .26286827 .42643229 .24749756 .4404297 .22732544 .4544271 .2071635 .46142579 .18212383 .46142579 .15220642 .46142579 .12292989 .45288087 .09536234 .43579103 .069503787 .41870118 .043655397 .39404298 .02365621 .3618164 .009506226 .32958985-.0046437585 .2931315-.01171875 .2524414-.01171875 .1850586-.01171875 .13370769 .002319336 .09838867 .030395508 .063069667 .05847168 .040527345 .100097659 .030761719 .15527344Z"/>
<path id="font_3_73" d="M.08691406 0V.4501953H.009277344V.5185547H.08691406V.5736084C.08691406 .6083577 .09000651 .6341756 .096191409 .651062 .104654949 .6737874 .11954752 .69221499 .14086914 .7063446 .16219075 .72047427 .1920573 .72753909 .23046875 .72753909 .25520835 .72753909 .2825521 .7246094 .3125 .71875L.2993164 .64208987C.28108726 .64534506 .26383464 .64697268 .2475586 .64697268 .22086589 .64697268 .20198567 .6412964 .19091797 .62994387 .17985027 .6185913 .1743164 .5973511 .1743164 .56622317V.5185547H.27539063V.4501953H.1743164V0H.08691406Z"/>
<path id="font_3_80" d="M.06591797 0V.5185547H.14453125V.44628907C.1608073 .47153727 .18245442 .4918467 .20947266 .5072174 .23649089 .5225881 .2672526 .53027346 .3017578 .53027346 .34016929 .53027346 .37166343 .52233889 .39624024 .5064697 .42081706 .49061076 .43815104 .46843467 .4482422 .4399414 .4892578 .5001628 .54264327 .53027346 .60839846 .53027346 .65983077 .53027346 .69938156 .5160319 .7270508 .48754884 .75472006 .45906578 .7685547 .4152018 .7685547 .35595704V0H.68115237V.3270111C.68115237 .36220805 .678304 .38754273 .6726074 .40301515 .6669108 .4184977 .6565755 .43096415 .64160159 .44041444 .6266276 .44986473 .6090495 .45458985 .5888672 .45458985 .5524089 .45458985 .52213546 .44244895 .49804688 .4181671 .47395835 .39389549 .46191407 .3550364 .46191407 .30158998V0H.37402345V.33728028C.37402345 .37638346 .36686198 .40571086 .35253907 .42526246 .33821617 .44481407 .31477867 .45458985 .28222657 .45458985 .25748698 .45458985 .23461914 .44806925 .21362305 .43502809 .19262696 .42199708 .17740886 .40293376 .16796875 .37783814 .15852864 .3527527 .1538086 .31658427 .1538086 .2693329V0H.06591797Z"/>
<path id="font_3_49" d="M.076171878 0V.7158203H.17333985L.5493164 .1538086V.7158203H.6401367V0H.54296877L.16699219 .5625V0H.076171878Z"/>
<path id="font_3_79" d="M.063964847 0V.7158203H.15185547V0H.063964847Z"/>
<path id="font_3_92" d="M.06201172-.20019531 .052246095-.11767578C.07145182-.12288412 .08821615-.12548828 .10253906-.12548828 .12207031-.12548828 .13769531-.12219238 .14941406-.115600589 .16113281-.10901896 .17073567-.09979757 .17822266-.0879364 .18375652-.079045619 .19270833-.056981405 .20507813-.021743775 .20670574-.016799927 .20930989-.009552002 .21289063 0L.016113282 .5185547H.110839847L.21875 .21896363C.23274739 .18095906 .24527996 .14101155 .25634767 .099121097 .2664388 .13939412 .27848307 .1786906 .29248048 .2170105L.4033203 .5185547H.49121095L.2939453-.009140015C.27278648-.06614685 .25634767-.105397548 .2446289-.12689209 .2290039-.15588379 .21110027-.17713928 .19091797-.19065857 .17073567-.20417786 .14664714-.2109375 .118652347-.2109375 .10172526-.2109375 .082845058-.20735677 .06201172-.20019531Z"/>
<path id="font_3_11" d="M.23388672-.2109375C.18538411-.14973958 .14436849-.078125 .110839847 .00390625 .077311199 .0859375 .060546876 .17089844 .060546876 .25878907 .060546876 .33626304 .07307943 .41048179 .09814453 .4814453 .1274414 .56380209 .1726888 .6458333 .23388672 .72753909H.296875C.25748698 .65983077 .23144531 .6114909 .21875 .58251956 .19889324 .53759768 .18326824 .49072267 .171875 .44189454 .15787761 .38102214 .1508789 .31982423 .1508789 .25830079 .1508789 .10172526 .19954427-.0546875 .296875-.2109375H.23388672Z"/>
<path id="font_3_89" d="M.20996094 0 .0126953129 .5185547H.10546875L.21679688 .20800781C.22884114 .17447917 .23990886 .13964844 .25 .103515628 .2578125 .13085938 .26871745 .16373699 .28271485 .20214844L.39794923 .5185547H.48828126L.2919922 0H.20996094Z"/>
<path id="font_3_15" d="M.08886719 0V.10058594H.18896485V.000289917C.18896485-.036575319 .18245442-.066340129 .1694336-.08900452 .15641277-.11167908 .13574219-.12921143 .107421878-.14160156L.08300781-.103515628C.1015625-.0954183 .115234378-.08351135 .12402344-.0677948 .1328125-.052078248 .13769531-.02947998 .13867188 0H.08886719Z"/>
<path id="font_3_93" d="M.01953125 0V.07128906L.34960938 .4501953C.31217448 .4482422 .27913413 .44726563 .25048829 .44726563H.0390625V.5185547H.46289063V.46044923L.1821289 .13134766 .12792969 .07128906C.1673177 .07421875 .20426433 .075683597 .23876953 .075683597H.47851563V0H.01953125Z"/>
<path id="font_3_12" d="M.123535159-.2109375H.060546876C.15787761-.0546875 .20654297 .10172526 .20654297 .25830079 .20654297 .3194987 .19954427 .38020835 .18554688 .4404297 .17447917 .4892578 .15901692 .5361328 .13916016 .5810547 .12646485 .61035159 .100260417 .6591797 .060546876 .72753909H.123535159C.18473308 .6458333 .22998047 .56380209 .25927735 .4814453 .28434245 .41048179 .296875 .33626304 .296875 .25878907 .296875 .17089844 .2800293 .0859375 .24633789 .00390625 .21264649-.078125 .17171224-.14973958 .123535159-.2109375Z"/>
<path id="font_3_42" d="M.41210938 .28222657V.36523438L.71533206 .36572267V.10058594C.66878256 .063313808 .62076827 .03527832 .57128909 .016479493 .5218099-.002319336 .47102867-.01171875 .4189453-.01171875 .3486328-.01171875 .28474937 .0033365887 .22729492 .033447267 .1698405 .063557948 .12646485 .10709635 .09716797 .1640625 .067871097 .22102864 .053222658 .28466798 .053222658 .35498048 .053222658 .42464195 .06778971 .4896647 .09692383 .5500488 .12605794 .6104329 .16796875 .65527346 .22265625 .6845703 .27734376 .7138672 .34033204 .7285156 .4116211 .7285156 .4633789 .7285156 .51017257 .7201538 .55200198 .7034302 .59383139 .68670657 .6266276 .6634013 .6503906 .6335144 .6741536 .6036377 .69222006 .56466677 .70458987 .51660159L.6191406 .49316407C.60839846 .5296224 .59505209 .55826827 .57910159 .57910159 .56315109 .5999349 .54036459 .61661788 .5107422 .6291504 .48111979 .6416829 .4482422 .6479492 .41210938 .6479492 .3688151 .6479492 .33138023 .64135238 .2998047 .62815859 .26822917 .6149648 .24275716 .59761556 .22338867 .57611086 .20402019 .55460616 .18896485 .53098556 .17822266 .505249 .15999349 .4609375 .1508789 .41288249 .1508789 .36108399 .1508789 .29723106 .16186524 .24379985 .18383789 .2007904 .20581055 .15778096 .23779297 .12584941 .27978517 .10499573 .32177735 .08415222 .3663737 .07373047 .41357423 .07373047 .45458985 .07373047 .4946289 .08167521 .5336914 .0975647 .5727539 .113454189 .6023763 .13041179 .6225586 .1484375V.28222657H.41210938Z"/>
<path id="font_3_71" d="M.40234376 0V.06542969C.36946617 .0139973959 .3211263-.01171875 .25732423-.01171875 .21598308-.01171875 .17797852-.00032552085 .14331055 .022460938 .10864258 .045247396 .08178711 .077067058 .06274414 .11791992 .043701173 .15877278 .034179689 .20572917 .034179689 .25878907 .034179689 .31054688 .04280599 .35750328 .060058595 .3996582 .077311199 .44181315 .1031901 .4741211 .13769531 .49658204 .17220052 .51904299 .21077474 .53027346 .25341798 .53027346 .28466798 .53027346 .3125 .52368167 .33691407 .51049807 .36132813 .49731446 .3811849 .48014323 .39648438 .45898438V.7158203H.48388673V0H.40234376M.12451172 .2590332C.12451172 .1928711 .13850911 .14341228 .1665039 .11065674 .1944987 .07790121 .22753906 .061523439 .265625 .061523439 .30403648 .061523439 .33666993 .077168788 .3635254 .10845947 .39038087 .13976033 .4038086 .18752034 .4038086 .2517395 .4038086 .32243858 .39013673 .3743286 .36279298 .40740968 .33544923 .44049073 .3017578 .45703126 .26171876 .45703126 .22265625 .45703126 .19002278 .4411367 .16381836 .40934754 .13761394 .37756858 .12451172 .32746379 .12451172 .2590332Z"/>
</defs>
<g clip-path="url(#clip_0)">
<path transform="matrix(.75,0,0,.75,0,0)" d="M0 0H1078V708H0Z" fill="#ffffff"/>
</g>
<g clip-path="url(#clip_1)">
<path transform="matrix(.68537989,0,0,.68537989,-20.24325,6.5815808)" stroke-width="3" stroke-linecap="butt" stroke-miterlimit="4" stroke-linejoin="miter" fill="none" stroke="#000000" d="M60 45H700V680H60Z"/>
<path transform="matrix(.68537989,0,0,.68537989,-20.58594,6.238891)" d="M145 118 165 70H295L315 118H145Z" fill="#d5e8d4"/>
<path transform="matrix(.68537989,0,0,.68537989,-20.58594,6.238891)" stroke-width="2" stroke-linecap="butt" stroke-miterlimit="10" stroke-linejoin="miter" fill="none" stroke="#000000" d="M145 118 165 70H295L315 118H145Z"/>
<path transform="matrix(.68537989,0,0,.68537989,-20.58594,6.238891)" d="M248 156C247.99999 157.18189 247.8847 158.35242 247.65413 159.51161 247.42356 160.6708 247.0821 161.79636 246.6298 162.88828 246.17752 163.98021 245.62306 165.01753 244.96643 166.00025 244.3098 166.98296 243.56363 167.89217 242.7279 168.7279 241.89218 169.56363 240.98297 170.3098 240.00026 170.96643 239.01752 171.62306 237.9802 172.17752 236.88828 172.6298 235.79634 173.08209 234.67079 173.42354 233.51161 173.65412 232.35242 173.88469 231.18189 173.99999 230 174 228.8181 173.99999 227.64756 173.88469 226.48836 173.65412 225.32917 173.42354 224.2036 173.08209 223.11167 172.6298 222.01973 172.17752 220.98242 171.62306 219.99971 170.96643 219.017 170.3098 218.10778 169.56363 217.27205 168.7279 216.43631 167.89217 215.69014 166.98296 215.03351 166.00025 214.37688 165.01753 213.82242 163.98021 213.37014 162.88828 212.91783 161.79636 212.5764 160.6708 212.34584 159.51161 212.11527 158.35242 211.99999 157.18189 212 156 211.99999 154.8181 212.11527 153.64756 212.34584 152.48836 212.5764 151.32917 212.91783 150.20362 213.37012 149.11168 213.82242 148.01975 214.37688 146.98242 215.03351 145.99971 215.69014 145.017 216.43631 144.10779 217.27205 143.27207 218.10778 142.43634 219.01699 141.69016 219.9997 141.03353 220.9824 140.37689 222.01973 139.82244 223.11167 139.37015 224.2036 138.91786 225.32917 138.57643 226.48836 138.34586 227.64756 138.11528 228.8181 138 230 138 231.18189 138 232.35242 138.11528 233.51161 138.34586 234.67079 138.57643 235.79634 138.91786 236.88828 139.37015 237.9802 139.82244 239.01752 140.37689 240.00025 141.03353 240.98296 141.69016 241.89218 142.43634 242.7279 143.27207 243.56363 144.10779 244.3098 145.017 244.96643 145.99971 245.62306 146.98242 246.17752 148.01975 246.6298 149.11168 247.0821 150.20362 247.42356 151.32917 247.65413 152.48836 247.8847 153.64756 247.99999 154.8181 248 156Z" fill="#fce4d6"/>
<path transform="matrix(.68537989,0,0,.68537989,-20.58594,6.238891)" stroke-width="2" stroke-linecap="butt" stroke-miterlimit="4" stroke-linejoin="miter" fill="none" stroke="#000000" d="M248 156C247.99999 157.18189 247.8847 158.35242 247.65413 159.51161 247.42356 160.6708 247.0821 161.79636 246.6298 162.88828 246.17752 163.98021 245.62306 165.01753 244.96643 166.00025 244.3098 166.98296 243.56363 167.89217 242.7279 168.7279 241.89218 169.56363 240.98297 170.3098 240.00026 170.96643 239.01752 171.62306 237.9802 172.17752 236.88828 172.6298 235.79634 173.08209 234.67079 173.42354 233.51161 173.65412 232.35242 173.88469 231.18189 173.99999 230 174 228.8181 173.99999 227.64756 173.88469 226.48836 173.65412 225.32917 173.42354 224.2036 173.08209 223.11167 172.6298 222.01973 172.17752 220.98242 171.62306 219.99971 170.96643 219.017 170.3098 218.10778 169.56363 217.27205 168.7279 216.43631 167.89217 215.69014 166.98296 215.03351 166.00025 214.37688 165.01753 213.82242 163.98021 213.37014 162.88828 212.91783 161.79636 212.5764 160.6708 212.34584 159.51161 212.11527 158.35242 211.99999 157.18189 212 156 211.99999 154.8181 212.11527 153.64756 212.34584 152.48836 212.5764 151.32917 212.91783 150.20362 213.37012 149.11168 213.82242 148.01975 214.37688 146.98242 215.03351 145.99971 215.69014 145.017 216.43631 144.10779 217.27205 143.27207 218.10778 142.43634 219.01699 141.69016 219.9997 141.03353 220.9824 140.37689 222.01973 139.82244 223.11167 139.37015 224.2036 138.91786 225.32917 138.57643 226.48836 138.34586 227.64756 138.11528 228.8181 138 230 138 231.18189 138 232.35242 138.11528 233.51161 138.34586 234.67079 138.57643 235.79634 138.91786 236.88828 139.37015 237.9802 139.82244 239.01752 140.37689 240.00025 141.03353 240.98296 141.69016 241.89218 142.43634 242.7279 143.27207 243.56363 144.10779 244.3098 145.017 244.96643 145.99971 245.62306 146.98242 246.17752 148.01975 246.6298 149.11168 247.0821 150.20362 247.42356 151.32917 247.65413 152.48836 247.8847 153.64756 247.99999 154.8181 248 156Z"/>
<use data-text="N" xlink:href="#font_2_49" transform="matrix(11.651458,0,0,-11.651458,132.84278,116.58505)"/>
<path transform="matrix(.68537989,0,0,.68537989,-20.58594,6.238891)" d="M248 218C247.99999 219.1819 247.8847 220.35243 247.65413 221.51163 247.42356 222.67079 247.0821 223.79634 246.6298 224.88828 246.17752 225.98021 245.62306 227.01752 244.96643 228.00023 244.3098 228.98294 243.56363 229.89217 242.7279 230.7279 241.89218 231.56365 240.98297 232.30982 240.00026 232.96645 239.01752 233.62306 237.9802 234.17752 236.88828 234.6298 235.79634 235.08209 234.67079 235.42354 233.51161 235.65412 232.35242 235.8847 231.18189 236 230 236 228.8181 236 227.64756 235.8847 226.48836 235.65413 225.32917 235.42354 224.2036 235.08209 223.11167 234.6298 222.01973 234.17752 220.98242 233.62306 219.99971 232.96643 219.017 232.30982 218.10778 231.56365 217.27205 230.7279 216.43631 229.89217 215.69014 228.98294 215.03351 228.00023 214.37688 227.01752 213.82242 225.98021 213.37014 224.88828 212.91783 223.79634 212.5764 222.67078 212.34584 221.51161 212.11527 220.35243 211.99999 219.1819 212 218 211.99999 216.8181 212.11527 215.64756 212.34584 214.48838 212.5764 213.32917 212.91783 212.2036 213.37012 211.11167 213.82242 210.01973 214.37688 208.9824 215.03351 207.9997 215.69014 207.01699 216.43631 206.10778 217.27205 205.27207 218.10778 204.43633 219.01699 203.69014 219.9997 203.03353 220.9824 202.37689 222.01973 201.82244 223.11167 201.37015 224.2036 200.91786 225.32917 200.57643 226.48836 200.34586 227.64756 200.11528 228.8181 200 230 200 231.18189 200 232.35242 200.11528 233.51161 200.34584 234.67079 200.57643 235.79634 200.91786 236.88828 201.37015 237.9802 201.82244 239.01752 202.37689 240.00025 203.03353 240.98296 203.69014 241.89218 204.43633 242.7279 205.27207 243.56363 206.10778 244.3098 207.01699 244.96643 207.9997 245.62306 208.9824 246.17752 210.01973 246.6298 211.11167 247.0821 212.2036 247.42356 213.32917 247.65413 214.48836 247.8847 215.64756 247.99999 216.8181 248 218Z" fill="#fce4d6"/>
<path transform="matrix(.68537989,0,0,.68537989,-20.58594,6.238891)" stroke-width="2" stroke-linecap="butt" stroke-miterlimit="4" stroke-linejoin="miter" fill="none" stroke="#000000" d="M248 218C247.99999 219.1819 247.8847 220.35243 247.65413 221.51163 247.42356 222.67079 247.0821 223.79634 246.6298 224.88828 246.17752 225.98021 245.62306 227.01752 244.96643 228.00023 244.3098 228.98294 243.56363 229.89217 242.7279 230.7279 241.89218 231.56365 240.98297 232.30982 240.00026 232.96645 239.01752 233.62306 237.9802 234.17752 236.88828 234.6298 235.79634 235.08209 234.67079 235.42354 233.51161 235.65412 232.35242 235.8847 231.18189 236 230 236 228.8181 236 227.64756 235.8847 226.48836 235.65413 225.32917 235.42354 224.2036 235.08209 223.11167 234.6298 222.01973 234.17752 220.98242 233.62306 219.99971 232.96643 219.017 232.30982 218.10778 231.56365 217.27205 230.7279 216.43631 229.89217 215.69014 228.98294 215.03351 228.00023 214.37688 227.01752 213.82242 225.98021 213.37014 224.88828 212.91783 223.79634 212.5764 222.67078 212.34584 221.51161 212.11527 220.35243 211.99999 219.1819 212 218 211.99999 216.8181 212.11527 215.64756 212.34584 214.48838 212.5764 213.32917 212.91783 212.2036 213.37012 211.11167 213.82242 210.01973 214.37688 208.9824 215.03351 207.9997 215.69014 207.01699 216.43631 206.10778 217.27205 205.27207 218.10778 204.43633 219.01699 203.69014 219.9997 203.03353 220.9824 202.37689 222.01973 201.82244 223.11167 201.37015 224.2036 200.91786 225.32917 200.57643 226.48836 200.34586 227.64756 200.11528 228.8181 200 230 200 231.18189 200 232.35242 200.11528 233.51161 200.34584 234.67079 200.57643 235.79634 200.91786 236.88828 201.37015 237.9802 201.82244 239.01752 202.37689 240.00025 203.03353 240.98296 203.69014 241.89218 204.43633 242.7279 205.27207 243.56363 206.10778 244.3098 207.01699 244.96643 207.9997 245.62306 208.9824 246.17752 210.01973 246.6298 211.11167 247.0821 212.2036 247.42356 213.32917 247.65413 214.48836 247.8847 215.64756 247.99999 216.8181 248 218Z"/>
<path transform="matrix(.68537989,0,0,.68537989,-20.58594,6.238891)" stroke-width="2" stroke-linecap="butt" stroke-miterlimit="10" stroke-linejoin="miter" fill="none" stroke="#000000" d="M217.22 205.22 242.78 230.78"/>
<path transform="matrix(.68537989,0,0,.68537989,-20.58594,6.238891)" stroke-width="2" stroke-linecap="butt" stroke-miterlimit="10" stroke-linejoin="miter" fill="none" stroke="#000000" d="M242.78 205.22 217.22 230.78"/>
<path transform="matrix(.68537989,0,0,.68537989,-20.58594,6.238891)" d="M248 303C247.99999 304.18193 247.8847 305.35246 247.65413 306.5116 247.42356 307.67079 247.0821 308.79634 246.6298 309.88829 246.17752 310.9802 245.62306 312.01753 244.96643 313.00025 244.3098 313.98295 243.56363 314.89219 242.7279 315.7279 241.89218 316.56364 240.98297 317.30979 240.00026 317.9664 239.01752 318.62306 237.9802 319.1775 236.88828 319.6298 235.79634 320.0821 234.67079 320.42353 233.51161 320.6541 232.35242 320.88468 231.18189 320.99998 230 321 228.8181 320.99998 227.64756 320.88468 226.48836 320.6541 225.32917 320.42353 224.2036 320.0821 223.11167 319.6298 222.01973 319.1775 220.98242 318.62306 219.99971 317.9664 219.017 317.30979 218.10778 316.56364 217.27205 315.7279 216.43631 314.89219 215.69014 313.98295 215.03351 313.00025 214.37688 312.01753 213.82242 310.9802 213.37014 309.88829 212.91783 308.79634 212.5764 307.67079 212.34584 306.5116 212.11527 305.35246 211.99999 304.18193 212 303 211.99999 301.81809 212.11527 300.64756 212.34584 299.48838 212.5764 298.32917 212.91783 297.2036 213.37012 296.11167 213.82242 295.0197 214.37688 293.98243 215.03351 292.99974 215.69014 292.017 216.43631 291.1078 217.27205 290.27207 218.10778 289.43635 219.01699 288.69017 219.9997 288.03355 220.9824 287.37693 222.01973 286.82246 223.11167 286.37016 224.2036 285.91786 225.32917 285.57643 226.48836 285.34587 227.64756 285.1153 228.8181 285 230 285 231.18189 285 232.35242 285.1153 233.51161 285.34587 234.67079 285.57643 235.79634 285.91786 236.88828 286.37016 237.9802 286.82246 239.01752 287.37693 240.00025 288.03355 240.98296 288.69017 241.89218 289.43635 242.7279 290.27207 243.56363 291.1078 244.3098 292.017 244.96643 292.99974 245.62306 293.98243 246.17752 295.0197 246.6298 296.11167 247.0821 297.2036 247.42356 298.32917 247.65413 299.48838 247.8847 300.64756 247.99999 301.81809 248 303Z" fill="#fce4d6"/>
<path transform="matrix(.68537989,0,0,.68537989,-20.58594,6.238891)" stroke-width="2" stroke-linecap="butt" stroke-miterlimit="4" stroke-linejoin="miter" fill="none" stroke="#000000" d="M248 303C247.99999 304.18193 247.8847 305.35246 247.65413 306.5116 247.42356 307.67079 247.0821 308.79634 246.6298 309.88829 246.17752 310.9802 245.62306 312.01753 244.96643 313.00025 244.3098 313.98295 243.56363 314.89219 242.7279 315.7279 241.89218 316.56364 240.98297 317.30979 240.00026 317.9664 239.01752 318.62306 237.9802 319.1775 236.88828 319.6298 235.79634 320.0821 234.67079 320.42353 233.51161 320.6541 232.35242 320.88468 231.18189 320.99998 230 321 228.8181 320.99998 227.64756 320.88468 226.48836 320.6541 225.32917 320.42353 224.2036 320.0821 223.11167 319.6298 222.01973 319.1775 220.98242 318.62306 219.99971 317.9664 219.017 317.30979 218.10778 316.56364 217.27205 315.7279 216.43631 314.89219 215.69014 313.98295 215.03351 313.00025 214.37688 312.01753 213.82242 310.9802 213.37014 309.88829 212.91783 308.79634 212.5764 307.67079 212.34584 306.5116 212.11527 305.35246 211.99999 304.18193 212 303 211.99999 301.81809 212.11527 300.64756 212.34584 299.48838 212.5764 298.32917 212.91783 297.2036 213.37012 296.11167 213.82242 295.0197 214.37688 293.98243 215.03351 292.99974 215.69014 292.017 216.43631 291.1078 217.27205 290.27207 218.10778 289.43635 219.01699 288.69017 219.9997 288.03355 220.9824 287.37693 222.01973 286.82246 223.11167 286.37016 224.2036 285.91786 225.32917 285.57643 226.48836 285.34587 227.64756 285.1153 228.8181 285 230 285 231.18189 285 232.35242 285.1153 233.51161 285.34587 234.67079 285.57643 235.79634 285.91786 236.88828 286.37016 237.9802 286.82246 239.01752 287.37693 240.00025 288.03355 240.98296 288.69017 241.89218 289.43635 242.7279 290.27207 243.56363 291.1078 244.3098 292.017 244.96643 292.99974 245.62306 293.98243 246.17752 295.0197 246.6298 296.11167 247.0821 297.2036 247.42356 298.32917 247.65413 299.48838 247.8847 300.64756 247.99999 301.81809 248 303Z"/>
<use data-text="+" xlink:href="#font_3_14" transform="matrix(16.449116,0,0,-16.449116,132.24306,219.39203)"/>
<use data-text="G" xlink:href="#font_4_42" transform="matrix(13.707598,0,0,-13.707598,153.69332,210.48209)" fill="#cc0000"/>
<path transform="matrix(.68537989,0,0,.68537989,-20.58594,6.238891)" d="M65 355H205V405H65Z" fill="#ddebf7"/>
<path transform="matrix(.68537989,0,0,.68537989,-20.58594,6.238891)" stroke-width="2" stroke-linecap="butt" stroke-miterlimit="4" stroke-linejoin="miter" fill="none" stroke="#000000" d="M65 355H205V405H65Z"/>
<use data-text="S" xlink:href="#font_2_54" transform="matrix(18.505257,0,0,-18.505257,51.88227,272.85166)"/>
<use data-text="S" xlink:href="#font_2_54" transform="matrix(18.505257,0,0,-18.505257,64.22528,272.85166)"/>
<use data-text="M" xlink:href="#font_2_48" transform="matrix(18.505257,0,0,-18.505257,76.56829,272.85166)"/>
<path transform="matrix(.68537989,0,0,.68537989,-20.58594,6.238891)" d="M255 355H395V405H255Z" fill="#ddebf7"/>
<path transform="matrix(.68537989,0,0,.68537989,-20.58594,6.238891)" stroke-width="2" stroke-linecap="butt" stroke-miterlimit="4" stroke-linejoin="miter" fill="none" stroke="#000000" d="M255 355H395V405H255Z"/>
<use data-text="S" xlink:href="#font_2_54" transform="matrix(18.505257,0,0,-18.505257,181.60112,272.85166)"/>
<use data-text="M" xlink:href="#font_2_48" transform="matrix(18.505257,0,0,-18.505257,193.94412,272.85166)"/>
<use data-text="A" xlink:href="#font_2_36" transform="matrix(18.505257,0,0,-18.505257,209.35901,272.85166)"/>
<path transform="matrix(.68537989,0,0,.68537989,-20.58594,6.238891)" d="M248 448C247.99999 449.18186 247.8847 450.3524 247.65413 451.51158 247.42356 452.67076 247.0821 453.7963 246.6298 454.8882 246.17752 455.98017 245.62306 457.0175 244.96643 458.0002 244.3098 458.9829 243.56363 459.89216 242.7279 460.72789 241.89218 461.5636 240.98297 462.30976 240.00026 462.9664 239.01752 463.62303 237.9802 464.17747 236.88828 464.62977 235.79634 465.08207 234.67079 465.4235 233.51161 465.65409 232.35242 465.88468 231.18189 465.99998 230 466 228.8181 465.99998 227.64756 465.88468 226.48836 465.65409 225.32917 465.4235 224.2036 465.08207 223.11167 464.62977 222.01973 464.17747 220.98242 463.62303 219.99971 462.9664 219.017 462.30976 218.10778 461.5636 217.27205 460.72789 216.43631 459.89216 215.69014 458.9829 215.03351 458.00019 214.37688 457.0175 213.82242 455.98017 213.37014 454.8882 212.91783 453.7963 212.5764 452.67076 212.34584 451.51158 212.11527 450.3524 211.99999 449.18186 212 448 211.99999 446.81809 212.11527 445.64753 212.34584 444.48835 212.5764 443.32914 212.91783 442.20359 213.37012 441.11167 213.82242 440.0197 214.37688 438.9824 215.03351 437.9997 215.69014 437.01698 216.43631 436.10777 217.27205 435.27204 218.10778 434.4363 219.01699 433.69017 219.9997 433.0335 220.9824 432.37687 222.01973 431.82243 223.11167 431.37013 224.2036 430.91783 225.32917 430.57643 226.48836 430.34587 227.64756 430.1153 228.8181 430 230 430 231.18189 430 232.35242 430.1153 233.51161 430.34587 234.67079 430.57643 235.79634 430.91783 236.88828 431.3701 237.9802 431.8224 239.01752 432.37687 240.00025 433.03349 240.98296 433.69013 241.89218 434.4363 242.7279 435.27204 243.56363 436.10777 244.3098 437.01698 244.96643 437.99967 245.62306 438.9824 246.17752 440.0197 246.6298 441.11167 247.0821 442.20359 247.42356 443.32914 247.65413 444.48835 247.8847 445.64753 247.99999 446.81809 248 448Z" fill="#fce4d6"/>
<path transform="matrix(.68537989,0,0,.68537989,-20.58594,6.238891)" stroke-width="2" stroke-linecap="butt" stroke-miterlimit="4" stroke-linejoin="miter" fill="none" stroke="#000000" d="M248 448C247.99999 449.18186 247.8847 450.3524 247.65413 451.51158 247.42356 452.67076 247.0821 453.7963 246.6298 454.8882 246.17752 455.98017 245.62306 457.0175 244.96643 458.0002 244.3098 458.9829 243.56363 459.89216 242.7279 460.72789 241.89218 461.5636 240.98297 462.30976 240.00026 462.9664 239.01752 463.62303 237.9802 464.17747 236.88828 464.62977 235.79634 465.08207 234.67079 465.4235 233.51161 465.65409 232.35242 465.88468 231.18189 465.99998 230 466 228.8181 465.99998 227.64756 465.88468 226.48836 465.65409 225.32917 465.4235 224.2036 465.08207 223.11167 464.62977 222.01973 464.17747 220.98242 463.62303 219.99971 462.9664 219.017 462.30976 218.10778 461.5636 217.27205 460.72789 216.43631 459.89216 215.69014 458.9829 215.03351 458.00019 214.37688 457.0175 213.82242 455.98017 213.37014 454.8882 212.91783 453.7963 212.5764 452.67076 212.34584 451.51158 212.11527 450.3524 211.99999 449.18186 212 448 211.99999 446.81809 212.11527 445.64753 212.34584 444.48835 212.5764 443.32914 212.91783 442.20359 213.37012 441.11167 213.82242 440.0197 214.37688 438.9824 215.03351 437.9997 215.69014 437.01698 216.43631 436.10777 217.27205 435.27204 218.10778 434.4363 219.01699 433.69017 219.9997 433.0335 220.9824 432.37687 222.01973 431.82243 223.11167 431.37013 224.2036 430.91783 225.32917 430.57643 226.48836 430.34587 227.64756 430.1153 228.8181 430 230 430 231.18189 430 232.35242 430.1153 233.51161 430.34587 234.67079 430.57643 235.79634 430.91783 236.88828 431.3701 237.9802 431.8224 239.01752 432.37687 240.00025 433.03349 240.98296 433.69013 241.89218 434.4363 242.7279 435.27204 243.56363 436.10777 244.3098 437.01698 244.96643 437.99967 245.62306 438.9824 246.17752 440.0197 246.6298 441.11167 247.0821 442.20359 247.42356 443.32914 247.65413 444.48835 247.8847 445.64753 247.99999 446.81809 248 448Z"/>
<path transform="matrix(.016063592,0,0,-.016063592,132.25379,318.15638)" d="M184-11C198-11 211-9 225-6 271 4 318 30 354 66 409 121 439 191 439 263 439 296 433 323 421 348L416 358H476C531 358 535 358 541 360 557 365 572 379 572 401 572 419 564 424 552 431H414C338 431 275 431 274 430 256 428 235 423 220 417 150 390 90 331 56 257 39 218 31 182 31 147 31 58 91-11 184-11M361 278C361 259 357 235 350 205 334 139 317 104 287 73 259 44 222 26 188 26 136 26 106 62 106 117 106 135 109 155 114 178 129 248 146 286 174 315 199 341 231 358 276 358 331 358 361 331 361 278Z"/>
<path transform="matrix(.016063592,0,0,-.016063592,132.25379,318.15638)" stroke-width="0" stroke-linecap="butt" stroke-miterlimit="4" stroke-linejoin="miter" fill="none" stroke="#000000" stroke-opacity=".0482" d="M184-11C198-11 211-9 225-6 271 4 318 30 354 66 409 121 439 191 439 263 439 296 433 323 421 348L416 358H476C531 358 535 358 541 360 557 365 572 379 572 401 572 419 564 424 552 431H414C338 431 275 431 274 430 256 428 235 423 220 417 150 390 90 331 56 257 39 218 31 182 31 147 31 58 91-11 184-11M361 278C361 259 357 235 350 205 334 139 317 104 287 73 259 44 222 26 188 26 136 26 106 62 106 117 106 135 109 155 114 178 129 248 146 286 174 315 199 341 231 358 276 358 331 358 361 331 361 278Z"/>
<path transform="matrix(.68537989,0,0,.68537989,-20.58594,6.238891)" d="M165 490H295V536H165Z" fill="#ddebf7"/>
<path transform="matrix(.68537989,0,0,.68537989,-20.58594,6.238891)" stroke-width="2" stroke-linecap="butt" stroke-miterlimit="4" stroke-linejoin="miter" fill="none" stroke="#000000" d="M165 490H295V536H165Z"/>
<use data-text="C" xlink:href="#font_2_38" transform="matrix(16.449116,0,0,-16.449116,116.490039,363.3218)"/>
<use data-text="o" xlink:href="#font_2_82" transform="matrix(16.449116,0,0,-16.449116,128.3663,363.3218)"/>
<use data-text="n" xlink:href="#font_2_81" transform="matrix(16.449116,0,0,-16.449116,138.41672,363.3218)"/>
<use data-text="v" xlink:href="#font_2_89" transform="matrix(16.449116,0,0,-16.449116,148.46712,363.3218)"/>
<path transform="matrix(-.68537989,0,0,-.68537989,294.6888,827.32406)" d="M145 623 165 575H295L315 623H145Z" fill="#d5e8d4"/>
<path transform="matrix(-.68537989,0,0,-.68537989,294.6888,827.32406)" stroke-width="2" stroke-linecap="butt" stroke-miterlimit="10" stroke-linejoin="miter" fill="none" stroke="#000000" d="M145 623 165 575H295L315 623H145Z"/>
<path transform="matrix(.68537989,0,0,.68537989,-20.58594,6.238891)" d="M543 448C543 449.18186 542.8847 450.3524 542.65408 451.51158 542.42349 452.67076 542.08206 453.7963 541.62979 454.8882 541.1774 455.98017 540.623 457.0175 539.9664 458.0002 539.30978 458.9829 538.5636 459.89216 537.7279 460.72789 536.89218 461.5636 535.983 462.30976 535.00027 462.9664 534.0175 463.62303 532.9802 464.17747 531.88827 464.62977 530.7963 465.08207 529.6708 465.4235 528.5116 465.65409 527.3524 465.88468 526.1819 465.99998 525 466 523.81808 465.99998 522.6475 465.88468 521.48837 465.65409 520.3291 465.4235 519.20358 465.08207 518.11166 464.62977 517.0197 464.17747 515.9824 463.62303 514.9997 462.9664 514.01699 462.30976 513.1078 461.5636 512.2721 460.72789 511.43635 459.89216 510.69017 458.9829 510.03355 458.00019 509.3769 457.0175 508.82243 455.98017 508.37013 454.8882 507.91786 453.7963 507.57643 452.67076 507.34587 451.51158 507.1153 450.3524 507 449.18186 507 448 507 446.81809 507.1153 445.64753 507.34587 444.48835 507.57643 443.32914 507.91786 442.20359 508.37016 441.11167 508.82246 440.0197 509.3769 438.9824 510.03355 437.9997 510.69017 437.01698 511.43635 436.10777 512.2721 435.27204 513.1078 434.4363 514.01699 433.69017 514.9997 433.0335 515.9824 432.37687 517.0197 431.82243 518.11166 431.37013 519.20358 430.91783 520.3291 430.57643 521.48837 430.34587 522.6475 430.1153 523.81808 430 525 430 526.1819 430 527.3524 430.1153 528.5116 430.34587 529.6708 430.57643 530.7963 430.91783 531.88827 431.3701 532.9802 431.8224 534.0175 432.37687 535.0002 433.03349 535.9829 433.69013 536.89218 434.4363 537.7279 435.27204 538.5636 436.10777 539.30978 437.01698 539.9664 437.99967 540.623 438.9824 541.1774 440.0197 541.62979 441.11167 542.08206 442.20359 542.42349 443.32914 542.65408 444.48835 542.8847 445.64753 543 446.81809 543 448Z" fill="#fce4d6"/>
<path transform="matrix(.68537989,0,0,.68537989,-20.58594,6.238891)" stroke-width="2" stroke-linecap="butt" stroke-miterlimit="4" stroke-linejoin="miter" fill="none" stroke="#000000" d="M543 448C543 449.18186 542.8847 450.3524 542.65408 451.51158 542.42349 452.67076 542.08206 453.7963 541.62979 454.8882 541.1774 455.98017 540.623 457.0175 539.9664 458.0002 539.30978 458.9829 538.5636 459.89216 537.7279 460.72789 536.89218 461.5636 535.983 462.30976 535.00027 462.9664 534.0175 463.62303 532.9802 464.17747 531.88827 464.62977 530.7963 465.08207 529.6708 465.4235 528.5116 465.65409 527.3524 465.88468 526.1819 465.99998 525 466 523.81808 465.99998 522.6475 465.88468 521.48837 465.65409 520.3291 465.4235 519.20358 465.08207 518.11166 464.62977 517.0197 464.17747 515.9824 463.62303 514.9997 462.9664 514.01699 462.30976 513.1078 461.5636 512.2721 460.72789 511.43635 459.89216 510.69017 458.9829 510.03355 458.00019 509.3769 457.0175 508.82243 455.98017 508.37013 454.8882 507.91786 453.7963 507.57643 452.67076 507.34587 451.51158 507.1153 450.3524 507 449.18186 507 448 507 446.81809 507.1153 445.64753 507.34587 444.48835 507.57643 443.32914 507.91786 442.20359 508.37016 441.11167 508.82246 440.0197 509.3769 438.9824 510.03355 437.9997 510.69017 437.01698 511.43635 436.10777 512.2721 435.27204 513.1078 434.4363 514.01699 433.69017 514.9997 433.0335 515.9824 432.37687 517.0197 431.82243 518.11166 431.37013 519.20358 430.91783 520.3291 430.57643 521.48837 430.34587 522.6475 430.1153 523.81808 430 525 430 526.1819 430 527.3524 430.1153 528.5116 430.34587 529.6708 430.57643 530.7963 430.91783 531.88827 431.3701 532.9802 431.8224 534.0175 432.37687 535.0002 433.03349 535.9829 433.69013 536.89218 434.4363 537.7279 435.27204 538.5636 436.10777 539.30978 437.01698 539.9664 437.99967 540.623 438.9824 541.1774 440.0197 541.62979 441.11167 542.08206 442.20359 542.42349 443.32914 542.65408 444.48835 542.8847 445.64753 543 446.81809 543 448Z"/>
<path transform="matrix(.016063592,0,0,-.016063592,334.44087,318.15638)" d="M184-11C198-11 211-9 225-6 271 4 318 30 354 66 409 121 439 191 439 263 439 296 433 323 421 348L416 358H476C531 358 535 358 541 360 557 365 572 379 572 401 572 419 564 424 552 431H414C338 431 275 431 274 430 256 428 235 423 220 417 150 390 90 331 56 257 39 218 31 182 31 147 31 58 91-11 184-11M361 278C361 259 357 235 350 205 334 139 317 104 287 73 259 44 222 26 188 26 136 26 106 62 106 117 106 135 109 155 114 178 129 248 146 286 174 315 199 341 231 358 276 358 331 358 361 331 361 278Z"/>
<path transform="matrix(.016063592,0,0,-.016063592,334.44087,318.15638)" stroke-width="0" stroke-linecap="butt" stroke-miterlimit="4" stroke-linejoin="miter" fill="none" stroke="#000000" stroke-opacity=".0482" d="M184-11C198-11 211-9 225-6 271 4 318 30 354 66 409 121 439 191 439 263 439 296 433 323 421 348L416 358H476C531 358 535 358 541 360 557 365 572 379 572 401 572 419 564 424 552 431H414C338 431 275 431 274 430 256 428 235 423 220 417 150 390 90 331 56 257 39 218 31 182 31 147 31 58 91-11 184-11M361 278C361 259 357 235 350 205 334 139 317 104 287 73 259 44 222 26 188 26 136 26 106 62 106 117 106 135 109 155 114 178 129 248 146 286 174 315 199 341 231 358 276 358 331 358 361 331 361 278Z"/>
<use data-text="A" xlink:href="#font_4_36" transform="matrix(13.707598,0,0,-13.707598,30.13217,303.00837)" fill="#cc0000"/>
<use data-text="X" xlink:href="#font_4_59" transform="matrix(13.707598,0,0,-13.707598,45.895914,303.00837)" fill="#cc0000"/>
<use data-text="B" xlink:href="#font_4_37" transform="matrix(13.707598,0,0,-13.707598,73.311107,303.00837)" fill="#cc0000"/>
<use data-text="C" xlink:href="#font_4_38" transform="matrix(13.707598,0,0,-13.707598,100.726299,303.00837)" fill="#cc0000"/>
<use data-text="C" xlink:href="#font_4_38" transform="matrix(13.707598,0,0,-13.707598,165.83739,303.00837)" fill="#cc0000"/>
<use data-text="Q" xlink:href="#font_4_52" transform="matrix(13.707598,0,0,-13.707598,189.82569,303.00837)" fill="#cc0000"/>
<use data-text="E" xlink:href="#font_4_40" transform="matrix(13.707598,0,0,-13.707598,217.24088,303.00837)" fill="#cc0000"/>
<use data-text="U" xlink:href="#font_4_56" transform="matrix(13.707598,0,0,-13.707598,113.941287,462.70188)" fill="#cc0000"/>
<use data-text="D" xlink:href="#font_2_39" transform="matrix(27.415196,0,0,-27.415196,170.60292,509.9931)"/>
<use data-text="A" xlink:href="#font_2_36" transform="matrix(27.415196,0,0,-27.415196,190.3967,509.9931)"/>
<use data-text="R" xlink:href="#font_2_53" transform="matrix(27.415196,0,0,-27.415196,210.19046,509.9931)"/>
<use data-text="T" xlink:href="#font_2_55" transform="matrix(27.415196,0,0,-27.415196,229.98424,509.9931)"/>
<path transform="matrix(.68537989,0,0,.68537989,-20.58594,6.238891)" d="M715 206H825V254H715Z" fill="#d5e8d4"/>
<path transform="matrix(.68537989,0,0,.68537989,-20.58594,6.238891)" stroke-width="2" stroke-linecap="butt" stroke-miterlimit="4" stroke-linejoin="miter" fill="none" stroke="#1f4e79" d="M715 206H825V254H715Z"/>
<use data-text="L" xlink:href="#font_3_47" transform="matrix(15.078357,0,0,-15.078357,563.3577,168.67392)"/>
<use data-text="i" xlink:href="#font_3_76" transform="matrix(15.078357,0,0,-15.078357,571.7413,168.67392)"/>
<use data-text="n" xlink:href="#font_3_81" transform="matrix(15.078357,0,0,-15.078357,575.0886,168.67392)"/>
<use data-text="e" xlink:href="#font_3_72" transform="matrix(15.078357,0,0,-15.078357,583.4722,168.67392)"/>
<use data-text="a" xlink:href="#font_3_68" transform="matrix(15.078357,0,0,-15.078357,591.8558,168.67392)"/>
<use data-text="r" xlink:href="#font_3_85" transform="matrix(15.078357,0,0,-15.078357,600.2393,168.67392)"/>
<use data-text=" " xlink:href="#font_3_3" transform="matrix(15.078357,0,0,-15.078357,605.26046,168.67392)"/>
<use data-text="p" xlink:href="#font_3_83" transform="matrix(15.078357,0,0,-15.078357,609.4522,168.67392)"/>
<use data-text="r" xlink:href="#font_3_85" transform="matrix(15.078357,0,0,-15.078357,617.83578,168.67392)"/>
<use data-text="o" xlink:href="#font_3_82" transform="matrix(15.078357,0,0,-15.078357,622.8569,168.67392)"/>
<use data-text="j" xlink:href="#font_3_77" transform="matrix(15.078357,0,0,-15.078357,631.2404,168.67392)"/>
<use data-text="e" xlink:href="#font_3_72" transform="matrix(15.078357,0,0,-15.078357,634.5878,168.67392)"/>
<use data-text="c" xlink:href="#font_3_70" transform="matrix(15.078357,0,0,-15.078357,642.9714,168.67392)"/>
<use data-text="t" xlink:href="#font_3_87" transform="matrix(15.078357,0,0,-15.078357,650.51058,168.67392)"/>
<use data-text="i" xlink:href="#font_3_76" transform="matrix(15.078357,0,0,-15.078357,654.70236,168.67392)"/>
<use data-text="o" xlink:href="#font_3_82" transform="matrix(15.078357,0,0,-15.078357,658.04977,168.67392)"/>
<use data-text="n" xlink:href="#font_3_81" transform="matrix(15.078357,0,0,-15.078357,666.4333,168.67392)"/>
<path transform="matrix(.68537989,0,0,.68537989,-20.58594,6.238891)" d="M715 286H825V334H715Z" fill="#ddebf7"/>
<path transform="matrix(.68537989,0,0,.68537989,-20.58594,6.238891)" stroke-width="2" stroke-linecap="butt" stroke-miterlimit="4" stroke-linejoin="miter" fill="none" stroke="#000000" d="M715 286H825V334H715Z"/>
<use data-text="S" xlink:href="#font_3_54" transform="matrix(15.078357,0,0,-15.078357,563.3577,223.5043)"/>
<use data-text="e" xlink:href="#font_3_72" transform="matrix(15.078357,0,0,-15.078357,573.415,223.5043)"/>
<use data-text="q" xlink:href="#font_3_84" transform="matrix(15.078357,0,0,-15.078357,581.7985,223.5043)"/>
<use data-text="u" xlink:href="#font_3_88" transform="matrix(15.078357,0,0,-15.078357,590.1821,223.5043)"/>
<use data-text="e" xlink:href="#font_3_72" transform="matrix(15.078357,0,0,-15.078357,598.5657,223.5043)"/>
<use data-text="n" xlink:href="#font_3_81" transform="matrix(15.078357,0,0,-15.078357,606.9492,223.5043)"/>
<use data-text="c" xlink:href="#font_3_70" transform="matrix(15.078357,0,0,-15.078357,615.33279,223.5043)"/>
<use data-text="e" xlink:href="#font_3_72" transform="matrix(15.078357,0,0,-15.078357,622.87197,223.5043)"/>
<use data-text=" " xlink:href="#font_3_3" transform="matrix(15.078357,0,0,-15.078357,631.25558,223.5043)"/>
<use data-text="t" xlink:href="#font_3_87" transform="matrix(15.078357,0,0,-15.078357,635.4473,223.5043)"/>
<use data-text="r" xlink:href="#font_3_85" transform="matrix(15.078357,0,0,-15.078357,639.63919,223.5043)"/>
<use data-text="a" xlink:href="#font_3_68" transform="matrix(15.078357,0,0,-15.078357,644.6602,223.5043)"/>
<use data-text="n" xlink:href="#font_3_81" transform="matrix(15.078357,0,0,-15.078357,653.04379,223.5043)"/>
<use data-text="s" xlink:href="#font_3_86" transform="matrix(15.078357,0,0,-15.078357,661.42739,223.5043)"/>
<use data-text="f" xlink:href="#font_3_73" transform="matrix(15.078357,0,0,-15.078357,668.96658,223.5043)"/>
<use data-text="o" xlink:href="#font_3_82" transform="matrix(15.078357,0,0,-15.078357,673.1583,223.5043)"/>
<use data-text="r" xlink:href="#font_3_85" transform="matrix(15.078357,0,0,-15.078357,681.5419,223.5043)"/>
<use data-text="m" xlink:href="#font_3_80" transform="matrix(15.078357,0,0,-15.078357,686.563,223.5043)"/>
<use data-text="a" xlink:href="#font_3_68" transform="matrix(15.078357,0,0,-15.078357,699.12338,223.5043)"/>
<use data-text="t" xlink:href="#font_3_87" transform="matrix(15.078357,0,0,-15.078357,707.50698,223.5043)"/>
<use data-text="i" xlink:href="#font_3_76" transform="matrix(15.078357,0,0,-15.078357,711.69869,223.5043)"/>
<use data-text="o" xlink:href="#font_3_82" transform="matrix(15.078357,0,0,-15.078357,715.0461,223.5043)"/>
<use data-text="n" xlink:href="#font_3_81" transform="matrix(15.078357,0,0,-15.078357,723.4297,223.5043)"/>
<path transform="matrix(.68537989,0,0,.68537989,-20.58594,6.238891)" d="M789 395C789 396.24754 788.8783 397.4831 788.6349 398.70668 788.3915 399.93028 788.03109 401.11836 787.55368 402.27095 787.0762 403.42356 786.49099 404.5185 785.7979 405.5558 785.10476 406.5931 784.31716 407.55284 783.435 408.435 782.55288 409.31715 781.5931 410.10478 780.5558 410.79789 779.5185 411.49098 778.4235 412.07624 777.27096 412.55366 776.1183 413.03108 774.93026 413.39149 773.70669 413.6349 772.4831 413.87828 771.24758 413.99998 770 414 768.7524 413.99998 767.5168 413.87828 766.2932 413.6349 765.06967 413.39149 763.88156 413.03108 762.72897 412.55366 761.5763 412.07624 760.4814 411.49098 759.4441 410.79789 758.4068 410.10478 757.447 409.31715 756.5649 408.435 755.6827 407.55284 754.895 406.5931 754.2019 405.5558 753.50888 404.5185 752.9236 403.42356 752.4461 402.27095 751.96878 401.11836 751.60836 399.93028 751.365 398.70668 751.12167 397.4831 750.99996 396.24754 751 395 750.99996 393.7524 751.12167 392.5168 751.36508 391.2932 751.6084 390.06965 751.96878 388.88157 752.4462 387.72895 752.9236 386.57637 753.50888 385.4814 754.20199 384.4441 754.895 383.40678 755.6827 382.44706 756.5649 381.56495 757.447 380.68278 758.4068 379.89515 759.4441 379.20207 760.4813 378.50895 761.57626 377.92369 762.7289 377.44627 763.88156 376.96888 765.06967 376.60847 766.2932 376.36509 767.5168 376.1217 768.7524 376 770 376 771.24758 376 772.48318 376.1217 773.7067 376.36509 774.93026 376.60847 776.1183 376.96888 777.27096 377.44627 778.4235 377.92369 779.5185 378.50895 780.5558 379.20207 781.5931 379.89515 782.55288 380.68278 783.435 381.56495 784.31716 382.44706 785.10476 383.40678 785.7979 384.4441 786.49099 385.4814 787.0762 386.57637 787.55368 387.72895 788.03109 388.88157 788.3915 390.06965 788.6348 391.2932 788.8783 392.5168 789 393.7524 789 395Z" fill="#fce4d6"/>
<path transform="matrix(.68537989,0,0,.68537989,-20.58594,6.238891)" stroke-width="2" stroke-linecap="butt" stroke-miterlimit="4" stroke-linejoin="miter" fill="none" stroke="#000000" d="M789 395C789 396.24754 788.8783 397.4831 788.6349 398.70668 788.3915 399.93028 788.03109 401.11836 787.55368 402.27095 787.0762 403.42356 786.49099 404.5185 785.7979 405.5558 785.10476 406.5931 784.31716 407.55284 783.435 408.435 782.55288 409.31715 781.5931 410.10478 780.5558 410.79789 779.5185 411.49098 778.4235 412.07624 777.27096 412.55366 776.1183 413.03108 774.93026 413.39149 773.70669 413.6349 772.4831 413.87828 771.24758 413.99998 770 414 768.7524 413.99998 767.5168 413.87828 766.2932 413.6349 765.06967 413.39149 763.88156 413.03108 762.72897 412.55366 761.5763 412.07624 760.4814 411.49098 759.4441 410.79789 758.4068 410.10478 757.447 409.31715 756.5649 408.435 755.6827 407.55284 754.895 406.5931 754.2019 405.5558 753.50888 404.5185 752.9236 403.42356 752.4461 402.27095 751.96878 401.11836 751.60836 399.93028 751.365 398.70668 751.12167 397.4831 750.99996 396.24754 751 395 750.99996 393.7524 751.12167 392.5168 751.36508 391.2932 751.6084 390.06965 751.96878 388.88157 752.4462 387.72895 752.9236 386.57637 753.50888 385.4814 754.20199 384.4441 754.895 383.40678 755.6827 382.44706 756.5649 381.56495 757.447 380.68278 758.4068 379.89515 759.4441 379.20207 760.4813 378.50895 761.57626 377.92369 762.7289 377.44627 763.88156 376.96888 765.06967 376.60847 766.2932 376.36509 767.5168 376.1217 768.7524 376 770 376 771.24758 376 772.48318 376.1217 773.7067 376.36509 774.93026 376.60847 776.1183 376.96888 777.27096 377.44627 778.4235 377.92369 779.5185 378.50895 780.5558 379.20207 781.5931 379.89515 782.55288 380.68278 783.435 381.56495 784.31716 382.44706 785.10476 383.40678 785.7979 384.4441 786.49099 385.4814 787.0762 386.57637 787.55368 387.72895 788.03109 388.88157 788.3915 390.06965 788.6348 391.2932 788.8783 392.5168 789 393.7524 789 395Z"/>
<use data-text="N" xlink:href="#font_3_49" transform="matrix(15.078357,0,0,-15.078357,563.3577,276.96394)"/>
<use data-text="o" xlink:href="#font_3_82" transform="matrix(15.078357,0,0,-15.078357,574.24429,276.96394)"/>
<use data-text="n" xlink:href="#font_3_81" transform="matrix(15.078357,0,0,-15.078357,582.6278,276.96394)"/>
<use data-text="l" xlink:href="#font_3_79" transform="matrix(15.078357,0,0,-15.078357,591.0114,276.96394)"/>
<use data-text="i" xlink:href="#font_3_76" transform="matrix(15.078357,0,0,-15.078357,594.35879,276.96394)"/>
<use data-text="n" xlink:href="#font_3_81" transform="matrix(15.078357,0,0,-15.078357,597.7061,276.96394)"/>
<use data-text="e" xlink:href="#font_3_72" transform="matrix(15.078357,0,0,-15.078357,606.0897,276.96394)"/>
<use data-text="a" xlink:href="#font_3_68" transform="matrix(15.078357,0,0,-15.078357,614.47329,276.96394)"/>
<use data-text="r" xlink:href="#font_3_85" transform="matrix(15.078357,0,0,-15.078357,622.8568,276.96394)"/>
<use data-text="i" xlink:href="#font_3_76" transform="matrix(15.078357,0,0,-15.078357,627.8779,276.96394)"/>
<use data-text="t" xlink:href="#font_3_87" transform="matrix(15.078357,0,0,-15.078357,631.2253,276.96394)"/>
<use data-text="y" xlink:href="#font_3_92" transform="matrix(15.078357,0,0,-15.078357,635.4171,276.96394)"/>
<use data-text=" " xlink:href="#font_3_3" transform="matrix(15.078357,0,0,-15.078357,642.9563,276.96394)"/>
<use data-text="(" xlink:href="#font_3_11" transform="matrix(15.078357,0,0,-15.078357,647.1481,276.96394)"/>
<use data-text="a" xlink:href="#font_3_68" transform="matrix(15.078357,0,0,-15.078357,652.1691,276.96394)"/>
<use data-text="c" xlink:href="#font_3_70" transform="matrix(15.078357,0,0,-15.078357,660.55276,276.96394)"/>
<use data-text="t" xlink:href="#font_3_87" transform="matrix(15.078357,0,0,-15.078357,668.0919,276.96394)"/>
<use data-text="i" xlink:href="#font_3_76" transform="matrix(15.078357,0,0,-15.078357,672.2837,276.96394)"/>
<use data-text="v" xlink:href="#font_3_89" transform="matrix(15.078357,0,0,-15.078357,675.6311,276.96394)"/>
<use data-text="a" xlink:href="#font_3_68" transform="matrix(15.078357,0,0,-15.078357,683.1702,276.96394)"/>
<use data-text="t" xlink:href="#font_3_87" transform="matrix(15.078357,0,0,-15.078357,691.55386,276.96394)"/>
<use data-text="i" xlink:href="#font_3_76" transform="matrix(15.078357,0,0,-15.078357,695.7456,276.96394)"/>
<use data-text="o" xlink:href="#font_3_82" transform="matrix(15.078357,0,0,-15.078357,699.093,276.96394)"/>
<use data-text="n" xlink:href="#font_3_81" transform="matrix(15.078357,0,0,-15.078357,707.4766,276.96394)"/>
<use data-text="," xlink:href="#font_3_15" transform="matrix(15.078357,0,0,-15.078357,715.8602,276.96394)"/>
<use data-text="n" xlink:href="#font_3_81" transform="matrix(15.078357,0,0,-15.078357,563.3577,294.7838)"/>
<use data-text="o" xlink:href="#font_3_82" transform="matrix(15.078357,0,0,-15.078357,571.7413,294.7838)"/>
<use data-text="r" xlink:href="#font_3_85" transform="matrix(15.078357,0,0,-15.078357,580.1248,294.7838)"/>
<use data-text="m" xlink:href="#font_3_80" transform="matrix(15.078357,0,0,-15.078357,585.14596,294.7838)"/>
<use data-text="a" xlink:href="#font_3_68" transform="matrix(15.078357,0,0,-15.078357,597.7062,294.7838)"/>
<use data-text="l" xlink:href="#font_3_79" transform="matrix(15.078357,0,0,-15.078357,606.0897,294.7838)"/>
<use data-text="i" xlink:href="#font_3_76" transform="matrix(15.078357,0,0,-15.078357,609.43716,294.7838)"/>
<use data-text="z" xlink:href="#font_3_93" transform="matrix(15.078357,0,0,-15.078357,612.7845,294.7838)"/>
<use data-text="a" xlink:href="#font_3_68" transform="matrix(15.078357,0,0,-15.078357,620.32369,294.7838)"/>
<use data-text="t" xlink:href="#font_3_87" transform="matrix(15.078357,0,0,-15.078357,628.7072,294.7838)"/>
<use data-text="i" xlink:href="#font_3_76" transform="matrix(15.078357,0,0,-15.078357,632.89907,294.7838)"/>
<use data-text="o" xlink:href="#font_3_82" transform="matrix(15.078357,0,0,-15.078357,636.2464,294.7838)"/>
<use data-text="n" xlink:href="#font_3_81" transform="matrix(15.078357,0,0,-15.078357,644.63,294.7838)"/>
<use data-text="," xlink:href="#font_3_15" transform="matrix(15.078357,0,0,-15.078357,653.01358,294.7838)"/>
<use data-text=" " xlink:href="#font_3_3" transform="matrix(15.078357,0,0,-15.078357,657.2053,294.7838)"/>
<use data-text="m" xlink:href="#font_3_80" transform="matrix(15.078357,0,0,-15.078357,661.39718,294.7838)"/>
<use data-text="u" xlink:href="#font_3_88" transform="matrix(15.078357,0,0,-15.078357,673.9574,294.7838)"/>
<use data-text="l" xlink:href="#font_3_79" transform="matrix(15.078357,0,0,-15.078357,682.34097,294.7838)"/>
<use data-text="t" xlink:href="#font_3_87" transform="matrix(15.078357,0,0,-15.078357,685.6884,294.7838)"/>
<use data-text="i" xlink:href="#font_3_76" transform="matrix(15.078357,0,0,-15.078357,689.8801,294.7838)"/>
<use data-text="p" xlink:href="#font_3_83" transform="matrix(15.078357,0,0,-15.078357,693.22756,294.7838)"/>
<use data-text="l" xlink:href="#font_3_79" transform="matrix(15.078357,0,0,-15.078357,701.61117,294.7838)"/>
<use data-text="i" xlink:href="#font_3_76" transform="matrix(15.078357,0,0,-15.078357,704.9586,294.7838)"/>
<use data-text="c" xlink:href="#font_3_70" transform="matrix(15.078357,0,0,-15.078357,708.306,294.7838)"/>
<use data-text="a" xlink:href="#font_3_68" transform="matrix(15.078357,0,0,-15.078357,715.8452,294.7838)"/>
<use data-text="t" xlink:href="#font_3_87" transform="matrix(15.078357,0,0,-15.078357,724.2288,294.7838)"/>
<use data-text="i" xlink:href="#font_3_76" transform="matrix(15.078357,0,0,-15.078357,728.42056,294.7838)"/>
<use data-text="o" xlink:href="#font_3_82" transform="matrix(15.078357,0,0,-15.078357,731.76797,294.7838)"/>
<use data-text="n" xlink:href="#font_3_81" transform="matrix(15.078357,0,0,-15.078357,740.15158,294.7838)"/>
<use data-text=")" xlink:href="#font_3_12" transform="matrix(15.078357,0,0,-15.078357,748.53518,294.7838)"/>
<path transform="matrix(.68537989,0,0,.68537989,-20.58594,6.238891)" d="M789 500C789 501.24754 788.8783 502.4831 788.6349 503.70668 788.3915 504.93025 788.03109 506.11833 787.55368 507.2709 787.0762 508.42353 786.49099 509.51847 785.7979 510.5558 785.10476 511.5931 784.31716 512.55288 783.435 513.435 782.55288 514.31716 781.5931 515.10476 780.5558 515.79788 779.5185 516.49099 778.4235 517.07626 777.27096 517.55368 776.1183 518.03109 774.93026 518.3915 773.70669 518.6349 772.4831 518.8783 771.24758 519 770 519 768.7524 519 767.5168 518.8783 766.2932 518.6349 765.06967 518.3915 763.88156 518.03109 762.72897 517.55368 761.5763 517.07626 760.4814 516.49099 759.4441 515.79788 758.4068 515.10476 757.447 514.31716 756.5649 513.435 755.6827 512.55288 754.895 511.59309 754.2019 510.55577 753.50888 509.51847 752.9236 508.42353 752.4461 507.2709 751.96878 506.11833 751.60836 504.93025 751.365 503.70668 751.12167 502.4831 750.99996 501.24754 751 500 750.99996 498.75245 751.12167 497.51689 751.36508 496.29328 751.6084 495.06965 751.96878 493.88154 752.4462 492.72895 752.9236 491.57633 753.50888 490.48139 754.20199 489.44413 754.895 488.40684 755.6827 487.4471 756.5649 486.56495 757.447 485.6828 758.4068 484.89518 759.4441 484.20207 760.4813 483.50895 761.57626 482.92369 762.7289 482.44627 763.88156 481.96885 765.06967 481.60844 766.2932 481.36506 767.5168 481.12168 768.7524 481 770 481 771.24758 481 772.48318 481.12168 773.7067 481.36506 774.93026 481.60844 776.1183 481.96885 777.27096 482.44627 778.4235 482.92369 779.5185 483.50895 780.5558 484.20204 781.5931 484.89518 782.55288 485.6828 783.435 486.56495 784.31716 487.4471 785.10476 488.40684 785.7979 489.44416 786.49099 490.4814 787.0762 491.57633 787.55368 492.72895 788.03109 493.88154 788.3915 495.06965 788.6348 496.29325 788.8783 497.51686 789 498.75245 789 500Z" fill="#fce4d6"/>
<path transform="matrix(.68537989,0,0,.68537989,-20.58594,6.238891)" stroke-width="2" stroke-linecap="butt" stroke-miterlimit="4" stroke-linejoin="miter" fill="none" stroke="#000000" d="M789 500C789 501.24754 788.8783 502.4831 788.6349 503.70668 788.3915 504.93025 788.03109 506.11833 787.55368 507.2709 787.0762 508.42353 786.49099 509.51847 785.7979 510.5558 785.10476 511.5931 784.31716 512.55288 783.435 513.435 782.55288 514.31716 781.5931 515.10476 780.5558 515.79788 779.5185 516.49099 778.4235 517.07626 777.27096 517.55368 776.1183 518.03109 774.93026 518.3915 773.70669 518.6349 772.4831 518.8783 771.24758 519 770 519 768.7524 519 767.5168 518.8783 766.2932 518.6349 765.06967 518.3915 763.88156 518.03109 762.72897 517.55368 761.5763 517.07626 760.4814 516.49099 759.4441 515.79788 758.4068 515.10476 757.447 514.31716 756.5649 513.435 755.6827 512.55288 754.895 511.59309 754.2019 510.55577 753.50888 509.51847 752.9236 508.42353 752.4461 507.2709 751.96878 506.11833 751.60836 504.93025 751.365 503.70668 751.12167 502.4831 750.99996 501.24754 751 500 750.99996 498.75245 751.12167 497.51689 751.36508 496.29328 751.6084 495.06965 751.96878 493.88154 752.4462 492.72895 752.9236 491.57633 753.50888 490.48139 754.20199 489.44413 754.895 488.40684 755.6827 487.4471 756.5649 486.56495 757.447 485.6828 758.4068 484.89518 759.4441 484.20207 760.4813 483.50895 761.57626 482.92369 762.7289 482.44627 763.88156 481.96885 765.06967 481.60844 766.2932 481.36506 767.5168 481.12168 768.7524 481 770 481 771.24758 481 772.48318 481.12168 773.7067 481.36506 774.93026 481.60844 776.1183 481.96885 777.27096 482.44627 778.4235 482.92369 779.5185 483.50895 780.5558 484.20204 781.5931 484.89518 782.55288 485.6828 783.435 486.56495 784.31716 487.4471 785.10476 488.40684 785.7979 489.44416 786.49099 490.4814 787.0762 491.57633 787.55368 492.72895 788.03109 493.88154 788.3915 495.06965 788.6348 496.29325 788.8783 497.51686 789 498.75245 789 500Z"/>
<use data-text="+" xlink:href="#font_3_14" transform="matrix(16.449116,0,0,-16.449116,502.3482,354.41188)"/>
<use data-text="G" xlink:href="#font_3_42" transform="matrix(15.078357,0,0,-15.078357,563.3577,353.72648)"/>
<use data-text="a" xlink:href="#font_3_68" transform="matrix(15.078357,0,0,-15.078357,575.0887,353.72648)"/>
<use data-text="t" xlink:href="#font_3_87" transform="matrix(15.078357,0,0,-15.078357,583.4722,353.72648)"/>
<use data-text="e" xlink:href="#font_3_72" transform="matrix(15.078357,0,0,-15.078357,587.66409,353.72648)"/>
<use data-text="d" xlink:href="#font_3_71" transform="matrix(15.078357,0,0,-15.078357,596.0476,353.72648)"/>
<use data-text=" " xlink:href="#font_3_3" transform="matrix(15.078357,0,0,-15.078357,604.43118,353.72648)"/>
<use data-text="r" xlink:href="#font_3_85" transform="matrix(15.078357,0,0,-15.078357,608.623,353.72648)"/>
<use data-text="e" xlink:href="#font_3_72" transform="matrix(15.078357,0,0,-15.078357,613.64407,353.72648)"/>
<use data-text="s" xlink:href="#font_3_86" transform="matrix(15.078357,0,0,-15.078357,622.02767,353.72648)"/>
<use data-text="i" xlink:href="#font_3_76" transform="matrix(15.078357,0,0,-15.078357,629.56686,353.72648)"/>
<use data-text="d" xlink:href="#font_3_71" transform="matrix(15.078357,0,0,-15.078357,632.9142,353.72648)"/>
<use data-text="u" xlink:href="#font_3_88" transform="matrix(15.078357,0,0,-15.078357,641.2977,353.72648)"/>
<use data-text="a" xlink:href="#font_3_68" transform="matrix(15.078357,0,0,-15.078357,649.68136,353.72648)"/>
<use data-text="l" xlink:href="#font_3_79" transform="matrix(15.078357,0,0,-15.078357,658.0649,353.72648)"/>
<use data-text=" " xlink:href="#font_3_3" transform="matrix(15.078357,0,0,-15.078357,661.41226,353.72648)"/>
<use data-text="c" xlink:href="#font_3_70" transform="matrix(15.078357,0,0,-15.078357,665.60409,353.72648)"/>
<use data-text="o" xlink:href="#font_3_82" transform="matrix(15.078357,0,0,-15.078357,673.14328,353.72648)"/>
<use data-text="n" xlink:href="#font_3_81" transform="matrix(15.078357,0,0,-15.078357,681.52688,353.72648)"/>
<use data-text="n" xlink:href="#font_3_81" transform="matrix(15.078357,0,0,-15.078357,689.91049,353.72648)"/>
<use data-text="e" xlink:href="#font_3_72" transform="matrix(15.078357,0,0,-15.078357,698.29409,353.72648)"/>
<use data-text="c" xlink:href="#font_3_70" transform="matrix(15.078357,0,0,-15.078357,706.6777,353.72648)"/>
<use data-text="t" xlink:href="#font_3_87" transform="matrix(15.078357,0,0,-15.078357,714.2168,353.72648)"/>
<use data-text="i" xlink:href="#font_3_76" transform="matrix(15.078357,0,0,-15.078357,718.40859,353.72648)"/>
<use data-text="o" xlink:href="#font_3_82" transform="matrix(15.078357,0,0,-15.078357,721.756,353.72648)"/>
<use data-text="n" xlink:href="#font_3_81" transform="matrix(15.078357,0,0,-15.078357,730.1396,353.72648)"/>
<path transform="matrix(.68537989,0,0,.68537989,-20.24325,6.5815808)" stroke-width="3" stroke-linecap="butt" stroke-miterlimit="10" stroke-linejoin="miter" fill="none" stroke="#000000" d="M230 70V28.1"/>
<path transform="matrix(.68537989,0,0,.68537989,-20.24325,6.5815808)" d="M230 21.35 234.5 30.35 230 28.1 225.5 30.35 230 21.35Z"/>
<path transform="matrix(.68537989,0,0,.68537989,-20.24325,6.5815808)" stroke-width="3" stroke-linecap="butt" stroke-miterlimit="10" stroke-linejoin="miter" fill="none" stroke="#000000" d="M230 21.35 234.5 30.35 230 28.1 225.5 30.35 230 21.35Z"/>
<path transform="matrix(.68537989,0,0,.68537989,-20.58594,6.238891)" stroke-width="2" stroke-linecap="butt" stroke-miterlimit="10" stroke-linejoin="miter" fill="none" stroke="#000000" d="M230 118V138"/>
<path transform="matrix(.68537989,0,0,.68537989,-20.58594,6.238891)" stroke-width="2" stroke-linecap="butt" stroke-miterlimit="10" stroke-linejoin="miter" fill="none" stroke="#000000" d="M230 174V200"/>
<path transform="matrix(.68537989,0,0,.68537989,-20.58594,6.238891)" stroke-width="2" stroke-linecap="butt" stroke-miterlimit="10" stroke-linejoin="miter" fill="none" stroke="#000000" d="M230 285V236"/>
<path transform="matrix(.68537989,0,0,.68537989,-20.58594,6.238891)" stroke-width="2" stroke-linecap="butt" stroke-miterlimit="10" stroke-linejoin="miter" fill="none" stroke="#000000" d="M205 380H246.76"/>
<path transform="matrix(.68537989,0,0,.68537989,-20.58594,6.238891)" d="M252.76 380 244.76 384 246.76 380 244.76 376 252.76 380Z"/>
<path transform="matrix(.68537989,0,0,.68537989,-20.58594,6.238891)" stroke-width="2" stroke-linecap="butt" stroke-miterlimit="10" stroke-linejoin="miter" fill="none" stroke="#000000" d="M252.76 380 244.76 384 246.76 380 244.76 376 252.76 380Z"/>
<path transform="matrix(.68537989,0,0,.68537989,-20.58594,6.238891)" stroke-width="2" stroke-linecap="butt" stroke-miterlimit="10" stroke-linejoin="miter" fill="none" stroke="#000000" d="M135 355V303H212"/>
<path transform="matrix(.68537989,0,0,.68537989,-20.58594,6.238891)" stroke-width="2" stroke-linecap="butt" stroke-miterlimit="10" stroke-linejoin="miter" fill="none" stroke="#000000" d="M325 355V303H248"/>
<path transform="matrix(.68537989,0,0,.68537989,-20.58594,6.238891)" stroke-width="2" stroke-linecap="butt" stroke-miterlimit="10" stroke-linejoin="miter" fill="none" stroke="#000000" d="M230 466V490"/>
<path transform="matrix(.68537989,0,0,.68537989,-20.58594,6.238891)" stroke-width="2" stroke-linecap="butt" stroke-miterlimit="10" stroke-linejoin="miter" fill="none" stroke="#000000" d="M230 536V575"/>
<path transform="matrix(.68537989,0,0,.68537989,-20.58594,6.238891)" stroke-width="2" stroke-linecap="butt" stroke-miterlimit="10" stroke-linejoin="miter" fill="none" stroke="#000000" d="M90 599V405"/>
<path transform="matrix(.68537989,0,0,.68537989,-20.58594,6.238891)" stroke-width="2" stroke-linecap="butt" stroke-miterlimit="10" stroke-linejoin="miter" fill="none" stroke="#000000" d="M155 599H90"/>
<path transform="matrix(.68537989,0,0,.68537989,-20.58594,6.238891)" stroke-width="2" stroke-linecap="butt" stroke-miterlimit="10" stroke-linejoin="miter" fill="none" stroke="#000000" d="M230 430V418"/>
<path transform="matrix(.68537989,0,0,.68537989,-20.58594,6.238891)" stroke-width="2" stroke-linecap="butt" stroke-miterlimit="10" stroke-linejoin="miter" fill="none" stroke="#000000" d="M230 418H195"/>
<path transform="matrix(.68537989,0,0,.68537989,-20.58594,6.238891)" stroke-width="2" stroke-linecap="butt" stroke-miterlimit="10" stroke-linejoin="miter" fill="none" stroke="#000000" d="M230 418H270"/>
<path transform="matrix(.68537989,0,0,.68537989,-20.58594,6.238891)" stroke-width="2" stroke-linecap="butt" stroke-miterlimit="10" stroke-linejoin="miter" fill="none" stroke="#000000" d="M212 448H115V405"/>
<path transform="matrix(.68537989,0,0,.68537989,-20.58594,6.238891)" stroke-width="2" stroke-linecap="butt" stroke-miterlimit="10" stroke-linejoin="miter" fill="none" stroke="#000000" d="M212 448H155V405"/>
<path transform="matrix(.68537989,0,0,.68537989,-20.58594,6.238891)" stroke-width="2" stroke-linecap="butt" stroke-miterlimit="10" stroke-linejoin="miter" fill="none" stroke="#000000" d="M195 418V405"/>
<path transform="matrix(.68537989,0,0,.68537989,-20.58594,6.238891)" stroke-width="2" stroke-linecap="butt" stroke-miterlimit="10" stroke-linejoin="miter" fill="none" stroke="#000000" d="M270 418V405"/>
<path transform="matrix(.68537989,0,0,.68537989,-20.58594,6.238891)" stroke-width="2" stroke-linecap="butt" stroke-miterlimit="10" stroke-linejoin="miter" fill="none" stroke="#000000" d="M248 448H325V405"/>
<path transform="matrix(.68537989,0,0,.68537989,-20.58594,6.238891)" stroke-width="2" stroke-linecap="butt" stroke-miterlimit="10" stroke-linejoin="miter" fill="none" stroke="#000000" d="M248 448H365V405"/>
<path transform="matrix(.68537989,0,0,.68537989,-20.24325,6.5815808)" stroke-width="3" stroke-linecap="butt" stroke-miterlimit="10" stroke-linejoin="miter" fill="none" stroke="#000000" d="M230 660V623"/>
<path transform="matrix(-.68537989,0,0,-.68537989,699.063,827.32406)" d="M440 623 460 575H590L610 623H440Z" fill="#d5e8d4"/>
<path transform="matrix(-.68537989,0,0,-.68537989,699.063,827.32406)" stroke-width="2" stroke-linecap="butt" stroke-miterlimit="10" stroke-linejoin="miter" fill="none" stroke="#000000" d="M440 623 460 575H590L610 623H440Z"/>
<path transform="matrix(.68537989,0,0,.68537989,-20.58594,6.238891)" stroke-width="2" stroke-linecap="butt" stroke-miterlimit="10" stroke-linejoin="miter" fill="none" stroke="#000000" d="M525 575V466"/>
<path transform="matrix(.68537989,0,0,.68537989,-20.58594,6.238891)" stroke-width="2" stroke-linecap="butt" stroke-miterlimit="10" stroke-linejoin="miter" fill="none" stroke="#000000" d="M525 430V218H248"/>
<path transform="matrix(.68537989,0,0,.68537989,-20.58594,6.238891)" stroke-width="2" stroke-linecap="butt" stroke-miterlimit="10" stroke-linejoin="miter" fill="none" stroke="#000000" d="M230 645H525V623"/>
</g>
</svg>
